<svg width="22" height="22" viewBox="0 0 22 22" fill="none" xmlns="http://www.w3.org/2000/svg">
<g clip-path="url(#clip0_792_9263)">
<path d="M19.9274 15.046C19.7742 16.2105 19.2023 17.2794 18.3186 18.053C17.4349 18.8267 16.2998 19.2522 15.1253 19.2501C8.30181 19.2501 2.75025 13.6985 2.75025 6.87507C2.74815 5.70055 3.17365 4.56543 3.9473 3.68171C4.72095 2.798 5.78984 2.22612 6.95431 2.07288C7.24878 2.03693 7.54698 2.09717 7.8044 2.24462C8.06181 2.39207 8.26464 2.61881 8.3826 2.89101L10.1976 6.94296V6.95327C10.2879 7.16163 10.3252 7.38911 10.3062 7.6154C10.2871 7.84169 10.2123 8.05974 10.0885 8.25007C10.073 8.27327 10.0567 8.29476 10.0395 8.31624L8.25025 10.4372C8.89392 11.7451 10.262 13.1012 11.5872 13.7466L13.6789 11.9669C13.6995 11.9496 13.721 11.9335 13.7434 11.9187C13.9336 11.7919 14.1523 11.7145 14.38 11.6935C14.6076 11.6725 14.8369 11.7085 15.047 11.7984L15.0582 11.8036L19.1067 13.6177C19.3794 13.7353 19.6067 13.9379 19.7546 14.1954C19.9026 14.4528 19.9632 14.7512 19.9274 15.046Z" fill="white"/>
</g>
<defs>
<clipPath id="clip0_792_9263">
<rect width="22" height="22" fill="white"/>
</clipPath>
</defs>
</svg>
