<svg width="27" height="27" viewBox="0 0 27 27" fill="none" xmlns="http://www.w3.org/2000/svg">
<circle cx="13.5" cy="13.5" r="13.5" fill="url(#paint0_linear_792_9203)"/>
<g clip-path="url(#clip0_792_9203)">
<path d="M21.1156 17.6782C20.9763 18.7368 20.4564 19.7085 19.6531 20.4119C18.8497 21.1152 17.8177 21.502 16.75 21.5001C10.5469 21.5001 5.50001 16.4532 5.50001 10.2501C5.49809 9.18234 5.88492 8.15042 6.58824 7.34704C7.29155 6.54366 8.26326 6.02376 9.32188 5.88446C9.58958 5.85177 9.86067 5.90654 10.0947 6.04058C10.3287 6.17463 10.5131 6.38076 10.6203 6.62821L12.2703 10.3118V10.3212C12.3524 10.5106 12.3863 10.7174 12.369 10.9231C12.3517 11.1288 12.2837 11.3271 12.1711 11.5001C12.157 11.5212 12.1422 11.5407 12.1266 11.5602L10.5 13.4884C11.0852 14.6774 12.3289 15.9102 13.5336 16.497L15.4352 14.879C15.4538 14.8633 15.4734 14.8487 15.4938 14.8352C15.6666 14.7199 15.8655 14.6495 16.0725 14.6304C16.2794 14.6114 16.4878 14.6441 16.6789 14.7259L16.6891 14.7306L20.3695 16.3798C20.6174 16.4866 20.8241 16.6709 20.9585 16.9049C21.093 17.1389 21.1481 17.4102 21.1156 17.6782Z" fill="white"/>
</g>
<defs>
<linearGradient id="paint0_linear_792_9203" x1="0" y1="13.5" x2="27" y2="13.5" gradientUnits="userSpaceOnUse">
<stop stop-color="#BF5AE0"/>
<stop offset="1" stop-color="#A811DA"/>
</linearGradient>
<clipPath id="clip0_792_9203">
<rect width="20" height="20" fill="white" transform="translate(2.99976 4)"/>
</clipPath>
</defs>
</svg>
