<svg width="16" height="16" viewBox="0 0 16 16" fill="none" xmlns="http://www.w3.org/2000/svg">
<path d="M10.6236 8.974C9.18985 11.1225 7.98437 13.4892 5.24245 14.2139C5.21392 14.221 5.18396 14.2125 5.16399 14.1911L0.684464 9.24791C0.55179 9.10097 0.617414 8.86843 0.805725 8.80709C2.64746 8.20221 3.7973 6.76134 4.8216 5.2249C6.23393 3.10925 7.44369 0.781041 10.0986 0.0178104C10.1999 -0.0207078 10.3183 0.00354439 10.3953 0.0877137C10.9902 0.743949 15.4769 5.01519 15.484 5.02375C15.4869 5.02517 11.7235 7.32485 10.6236 8.974Z" fill="#77BB66"/>
<path opacity="0.5" d="M9.01858 7.42461C10.1547 7.42461 11.0757 6.50359 11.0757 5.36746C11.0757 4.23132 10.1547 3.3103 9.01858 3.3103C7.88245 3.3103 6.96143 4.23132 6.96143 5.36746C6.96143 6.50359 7.88245 7.42461 9.01858 7.42461Z" fill="white"/>
<path d="M11.341 10.0568C10.6063 11.1581 9.54779 13.2595 8.08981 14.4151C6.75166 15.4764 5.06399 16 5.06399 16L0.42041 10.5618L0.613001 9.06959L5.16671 14.1925C5.18525 14.2125 5.21378 14.2225 5.24089 14.2153C7.98424 13.4906 9.18971 11.1239 10.6234 8.97544C11.7234 7.32629 13.3682 5.56872 15.4853 5.02661C15.6536 5.21207 15.5795 6.76706 15.3954 6.82841C13.5194 7.4504 12.3682 8.51465 11.341 10.0568Z" fill="#477D2E"/>
<path d="M9.33086 1.29598C9.44071 1.45433 9.6333 1.61839 9.94287 1.71398C10.0527 1.74821 10.1683 1.76533 10.2838 1.76533C10.5292 1.76533 10.7346 1.68972 10.873 1.61982C11.2197 1.96791 11.6534 2.39161 12.0728 2.80247C12.4836 3.20477 12.9059 3.61849 13.2497 3.9623C13.1385 4.13206 13.05 4.38885 13.0871 4.73551C13.1042 4.89529 13.2169 5.05792 13.3368 5.1906C12.5778 5.67849 11.1212 6.76271 9.62759 8.67435C9.31232 9.07808 9.00417 9.52603 8.70744 9.95829C7.96846 11.0339 7.20523 12.1438 6.18949 12.8229C6.06965 12.6275 5.84853 12.3906 5.45336 12.2922C5.35778 12.268 5.26363 12.2565 5.17375 12.2565C4.91982 12.2565 4.72009 12.3507 4.57743 12.462L2.42327 9.9854C2.60445 9.84416 2.77421 9.60307 2.79133 9.23073C2.79989 9.05668 2.70716 8.89833 2.60159 8.77849C3.65157 8.001 4.76004 6.76128 5.35636 5.87109C5.44338 5.74127 5.53325 5.60574 5.62598 5.46593C6.55898 4.05788 7.82295 2.15765 9.33086 1.29598ZM9.44356 0.962158C7.62893 1.86092 6.18378 4.20196 5.15521 5.73413C4.48185 6.73703 3.26496 8.04522 2.21641 8.75139C2.21641 8.75139 2.56022 8.99534 2.54881 9.21646C2.52028 9.80993 2.03809 9.90979 2.03809 9.90979L4.5703 12.82C4.5703 12.82 4.75576 12.4948 5.17232 12.4948C5.23937 12.4948 5.31356 12.5033 5.39345 12.5233C5.96694 12.666 6.08249 13.171 6.08249 13.171C7.70026 12.2294 8.67748 10.2793 9.8159 8.81987C11.3609 6.84117 12.8974 5.71987 13.7291 5.22769C13.7291 5.22769 13.3467 4.91812 13.3253 4.70698C13.2668 4.15203 13.5807 3.95231 13.5807 3.95231C12.846 3.20905 11.6391 2.05208 10.9087 1.31168C10.9087 1.31168 10.6433 1.51996 10.2824 1.51996C10.1968 1.51996 10.1055 1.50855 10.0128 1.48001C9.48779 1.32166 9.44356 0.962158 9.44356 0.962158Z" fill="white"/>
<path d="M0.42041 10.5603L5.04687 15.98C5.04687 15.98 5.25373 15.6733 5.30081 15.1954C5.34218 14.7788 5.19666 14.2253 5.19666 14.2253L0.613001 9.06812L0.42041 10.5603Z" fill="#206026"/>
<path d="M6.62344 9.68316L6.87087 9.84119C6.86224 9.88574 6.84211 9.93276 6.81051 9.98225C6.7791 10.0291 6.74067 10.0721 6.69521 10.1112C6.53753 10.247 6.35329 10.2845 6.14248 10.2236L5.65046 10.0832C5.59715 10.0673 5.55088 10.0638 5.51165 10.0728C5.47243 10.0819 5.43861 10.0986 5.4102 10.1231L5.34414 10.18L5.15696 9.96265L5.38283 9.76813C5.47658 9.68738 5.53944 9.61098 5.5714 9.53892C5.60356 9.46422 5.60237 9.39102 5.56783 9.31932L4.89237 9.90105L4.73638 9.71993L5.40759 9.14187C5.28276 9.06876 5.13441 9.10622 4.96253 9.25425L4.60242 9.56438L4.4446 9.38113L5.63572 8.3553L5.79354 8.53855L5.46539 8.82116C5.54329 8.8283 5.61636 8.85568 5.68459 8.9033L5.9275 8.6941L6.08349 8.87522L5.85123 9.07525C5.93 9.19544 5.95795 9.31982 5.93507 9.44839C5.91219 9.57696 5.85147 9.69606 5.7529 9.80569C5.81651 9.79049 5.88942 9.79327 5.97162 9.81402L6.22586 9.88083C6.29748 9.90079 6.35413 9.90768 6.3958 9.90148C6.43747 9.89528 6.47961 9.87383 6.52223 9.83713C6.57337 9.79308 6.60711 9.74176 6.62344 9.68316Z" fill="white"/>
</svg>
