<svg width="37" height="62" viewBox="0 0 37 62" fill="none" xmlns="http://www.w3.org/2000/svg">
<path d="M10.106 57.504C9.82 58.0173 9.424 58.4097 8.918 58.681C8.41933 58.9523 7.84733 59.088 7.202 59.088C6.46133 59.088 5.82333 58.934 5.288 58.626C4.76 58.318 4.353 57.878 4.067 57.306C3.781 56.7267 3.638 56.0373 3.638 55.238C3.638 54.4167 3.79567 53.6943 4.111 53.071C4.42633 52.4477 4.86633 51.96 5.431 51.608C5.99567 51.256 6.64833 51.08 7.389 51.08C7.99767 51.08 8.533 51.2047 8.995 51.454C9.46433 51.7033 9.83833 52.07 10.117 52.554L9.457 53.049C9.017 52.257 8.32033 51.861 7.367 51.861C6.80233 51.861 6.30367 52.004 5.871 52.29C5.44567 52.576 5.112 52.972 4.87 53.478C4.628 53.984 4.507 54.5707 4.507 55.238C4.507 56.206 4.74167 56.9613 5.211 57.504C5.68767 58.0393 6.35133 58.307 7.202 58.307C8.24333 58.307 8.995 57.8743 9.457 57.009L10.106 57.504ZM10.9578 59V50.86H11.7608L11.7718 53.533L11.7058 55.403C11.8891 54.765 12.1715 54.2773 12.5528 53.94C12.9415 53.6027 13.3961 53.434 13.9168 53.434C14.4741 53.434 14.9031 53.6283 15.2038 54.017C15.5045 54.4057 15.6548 54.9667 15.6548 55.7L15.6328 59H14.8298L14.8518 55.799C14.8518 55.2637 14.7601 54.8603 14.5768 54.589C14.4008 54.3177 14.1148 54.182 13.7188 54.182C13.3448 54.182 13.0075 54.3323 12.7068 54.633C12.4135 54.9263 12.1788 55.425 12.0028 56.129C11.8341 56.833 11.7498 57.79 11.7498 59H10.9578ZM21.928 53.533V59H21.114L21.147 57.713C20.9417 58.1383 20.6667 58.4757 20.322 58.725C19.9773 58.967 19.585 59.088 19.145 59.088C18.683 59.088 18.2943 58.9817 17.979 58.769C17.6637 58.549 17.4217 58.2483 17.253 57.867C17.0843 57.4783 17 57.031 17 56.525C17 55.9163 17.11 55.381 17.33 54.919C17.55 54.4497 17.858 54.0867 18.254 53.83C18.65 53.566 19.1083 53.434 19.629 53.434C19.9957 53.434 20.3183 53.5183 20.597 53.687C20.8757 53.8557 21.081 54.072 21.213 54.336L21.323 53.533H21.928ZM19.651 54.16C19.101 54.16 18.661 54.369 18.331 54.787C18.001 55.205 17.836 55.7623 17.836 56.459C17.836 57.053 17.9607 57.5187 18.21 57.856C18.4667 58.186 18.815 58.351 19.255 58.351C19.6143 58.351 19.937 58.2447 20.223 58.032C20.509 57.8193 20.7327 57.526 20.894 57.152C21.0553 56.778 21.136 56.349 21.136 55.865C21.136 55.337 21.004 54.9227 20.74 54.622C20.476 54.314 20.113 54.16 19.651 54.16ZM25.6589 59.088C25.0355 59.088 24.5662 58.923 24.2509 58.593C23.9355 58.2557 23.7815 57.8083 23.7889 57.251L23.8219 54.215H22.8539V53.533H23.8329L23.8439 52.389H24.6469L24.6359 53.533H26.5389V54.215H24.6249L24.5919 57.196C24.5919 57.548 24.6799 57.8303 24.8559 58.043C25.0392 58.2557 25.3215 58.362 25.7029 58.362C25.8715 58.362 26.0292 58.3437 26.1759 58.307C26.3225 58.263 26.4765 58.1787 26.6379 58.054L26.9019 58.692C26.7405 58.8313 26.5499 58.934 26.3299 59C26.1099 59.0587 25.8862 59.088 25.6589 59.088ZM29.3897 59.088C28.7077 59.088 28.1797 58.9487 27.8057 58.67C27.4317 58.384 27.2154 57.9807 27.1567 57.46L27.8607 57.295C27.912 57.6837 28.0587 57.9697 28.3007 58.153C28.55 58.3363 28.913 58.428 29.3897 58.428C29.793 58.428 30.0974 58.3473 30.3027 58.186C30.5154 58.0173 30.6217 57.801 30.6217 57.537C30.6217 57.2877 30.5154 57.1043 30.3027 56.987C30.09 56.8623 29.7564 56.756 29.3017 56.668C28.9204 56.5947 28.594 56.503 28.3227 56.393C28.0514 56.2757 27.8424 56.1143 27.6957 55.909C27.549 55.7037 27.4757 55.4287 27.4757 55.084C27.4757 54.776 27.56 54.4973 27.7287 54.248C27.8974 53.9987 28.1284 53.8043 28.4217 53.665C28.7224 53.5183 29.0597 53.445 29.4337 53.445C29.947 53.445 30.365 53.5697 30.6877 53.819C31.0177 54.061 31.2194 54.3983 31.2927 54.831L30.6107 55.007C30.5007 54.4057 30.1047 54.105 29.4227 54.105C29.0707 54.105 28.7884 54.193 28.5757 54.369C28.3704 54.5377 28.2677 54.7687 28.2677 55.062C28.2677 55.304 28.3594 55.4983 28.5427 55.645C28.726 55.7843 29.056 55.9053 29.5327 56.008C29.9214 56.0887 30.255 56.184 30.5337 56.294C30.8124 56.3967 31.025 56.5397 31.1717 56.723C31.3257 56.9063 31.4064 57.1593 31.4137 57.482C31.4137 57.79 31.3294 58.065 31.1607 58.307C30.992 58.549 30.7537 58.7397 30.4457 58.879C30.145 59.0183 29.793 59.088 29.3897 59.088Z" fill="#BABABA" fill-opacity="0.69"/>
<path d="M18 39C26.2842 39 33 32.2842 33 24C33 15.7157 26.2842 9 18 9C9.71573 9 3 15.7157 3 24C3 26.3996 3.56343 28.6674 4.56519 30.6788C4.83141 31.2132 4.92002 31.8242 4.76568 32.4009L3.87227 35.7401C3.48443 37.1895 4.81052 38.5155 6.26003 38.1278L9.59909 37.2344C10.1759 37.08 10.7868 37.1687 11.3213 37.4348C13.3326 38.4366 15.6005 39 18 39Z" fill="#50464F"/>
<path d="M11.25 22.6639C11.25 24.7165 13.2283 26.8702 15.0429 28.4139C16.2786 29.4652 16.8966 29.9908 18 29.9908C19.1034 29.9908 19.7214 29.4652 20.9571 28.4139C22.7718 26.8702 24.75 24.7165 24.75 22.6639C24.75 18.6482 21.0373 17.1489 18 20.251C14.9626 17.1489 11.25 18.6482 11.25 22.6639Z" fill="#10000E"/>
<g filter="url(#filter0_d_666_2075)">
<circle cx="27.5455" cy="9.54545" r="7.54545" fill="#10000E"/>
<circle cx="27.5455" cy="9.54545" r="6.54545" fill="#FE5865"/>
<path d="M25.907 11.8182V10.7791H27.2161V7.70272L26.3079 8.33272L25.7025 7.42454L27.7725 6.00909H28.5088V10.7791H29.7279V11.8182H25.907Z" fill="white"/>
</g>
<defs>
<filter id="filter0_d_666_2075" x="18.3636" y="0.363636" width="18.3636" height="18.3636" filterUnits="userSpaceOnUse" color-interpolation-filters="sRGB">
<feFlood flood-opacity="0" result="BackgroundImageFix"/>
<feColorMatrix in="SourceAlpha" type="matrix" values="0 0 0 0 0 0 0 0 0 0 0 0 0 0 0 0 0 0 127 0" result="hardAlpha"/>
<feOffset/>
<feGaussianBlur stdDeviation="0.818182"/>
<feComposite in2="hardAlpha" operator="out"/>
<feColorMatrix type="matrix" values="0 0 0 0 0 0 0 0 0 0 0 0 0 0 0 0 0 0 0.12 0"/>
<feBlend mode="normal" in2="BackgroundImageFix" result="effect1_dropShadow_666_2075"/>
<feBlend mode="normal" in="SourceGraphic" in2="effect1_dropShadow_666_2075" result="shape"/>
</filter>
</defs>
</svg>
