<svg width="37" height="62" viewBox="0 0 37 62" fill="none" xmlns="http://www.w3.org/2000/svg">
<path d="M10.425 57.482C10.117 58.0027 9.69167 58.4023 9.149 58.681C8.60633 58.9597 7.99767 59.099 7.323 59.099C6.52367 59.099 5.838 58.945 5.266 58.637C4.694 58.329 4.254 57.889 3.946 57.317C3.64533 56.7377 3.495 56.0483 3.495 55.249C3.495 54.4203 3.66367 53.6943 4.001 53.071C4.33833 52.4477 4.80767 51.96 5.409 51.608C6.01033 51.256 6.707 51.08 7.499 51.08C8.17367 51.08 8.74933 51.2083 9.226 51.465C9.71 51.7217 10.1133 52.1103 10.436 52.631L9.336 53.423C9.138 53.0563 8.87767 52.7887 8.555 52.62C8.23233 52.4513 7.87667 52.367 7.488 52.367C6.98933 52.367 6.54933 52.488 6.168 52.73C5.78667 52.972 5.486 53.3093 5.266 53.742C5.05333 54.1673 4.947 54.6623 4.947 55.227C4.947 56.041 5.156 56.6753 5.574 57.13C5.99933 57.5847 6.58967 57.812 7.345 57.812C7.763 57.812 8.148 57.7167 8.5 57.526C8.852 57.3353 9.138 57.0457 9.358 56.657L10.425 57.482ZM11.0627 59V50.86H12.4047L12.4157 53.445L12.3387 54.831C12.5587 54.3617 12.8483 53.9987 13.2077 53.742C13.5743 53.4853 13.9923 53.357 14.4617 53.357C15.085 53.357 15.5543 53.5733 15.8697 54.006C16.1923 54.4313 16.35 55.0437 16.3427 55.843L16.3207 59H14.9787L15.0007 55.953C15.008 55.5203 14.9383 55.1903 14.7917 54.963C14.6523 54.7283 14.425 54.611 14.1097 54.611C13.8677 54.611 13.644 54.6807 13.4387 54.82C13.2333 54.9593 13.0537 55.1977 12.8997 55.535C12.7457 55.865 12.6247 56.316 12.5367 56.888C12.4487 57.4527 12.401 58.1567 12.3937 59H11.0627ZM22.8826 53.467V59H21.5186L21.5626 58.032C21.3646 58.3693 21.1043 58.6333 20.7816 58.824C20.4663 59.0073 20.1033 59.099 19.6926 59.099C19.2086 59.099 18.7979 58.989 18.4606 58.769C18.1233 58.5417 17.8666 58.23 17.6906 57.834C17.5146 57.438 17.4266 56.9833 17.4266 56.47C17.4266 55.854 17.5476 55.315 17.7896 54.853C18.0316 54.3837 18.3616 54.017 18.7796 53.753C19.2049 53.489 19.6816 53.357 20.2096 53.357C20.5616 53.357 20.8733 53.434 21.1446 53.588C21.4159 53.7347 21.6249 53.9327 21.7716 54.182L21.9036 53.467H22.8826ZM20.3086 54.545C19.8539 54.545 19.4909 54.7173 19.2196 55.062C18.9483 55.4067 18.8126 55.8577 18.8126 56.415C18.8126 56.8917 18.9153 57.262 19.1206 57.526C19.3259 57.79 19.6083 57.922 19.9676 57.922C20.2609 57.922 20.5249 57.8377 20.7596 57.669C21.0016 57.5003 21.1923 57.2657 21.3316 56.965C21.4709 56.6643 21.5406 56.3197 21.5406 55.931C21.5406 55.4983 21.4306 55.161 21.2106 54.919C20.9906 54.6697 20.6899 54.545 20.3086 54.545ZM26.6618 59.099C25.9944 59.099 25.4738 58.9157 25.0998 58.549C24.7331 58.1823 24.5534 57.702 24.5608 57.108L24.6048 54.567H23.6588V53.445H24.6268L24.6378 52.301H25.9798L25.9578 53.445H27.7728V54.567H25.9468L25.9138 56.965C25.9064 57.2657 25.9798 57.504 26.1338 57.68C26.2951 57.8487 26.5334 57.933 26.8488 57.933C27.0174 57.933 27.1751 57.911 27.3218 57.867C27.4684 57.823 27.6224 57.7423 27.7838 57.625L28.1798 58.659C28.0111 58.8057 27.7948 58.9157 27.5308 58.989C27.2668 59.0623 26.9771 59.099 26.6618 59.099ZM30.7128 59.099C29.9501 59.099 29.3671 58.956 28.9638 58.67C28.5604 58.3767 28.3258 57.9697 28.2598 57.449L29.3928 57.174C29.4368 57.4527 29.5651 57.669 29.7778 57.823C29.9904 57.9697 30.2948 58.043 30.6908 58.043C31.0134 58.043 31.2554 57.9917 31.4168 57.889C31.5854 57.7863 31.6698 57.647 31.6698 57.471C31.6698 57.295 31.5781 57.1593 31.3948 57.064C31.2188 56.9687 30.9438 56.8843 30.5698 56.811C30.1518 56.7303 29.7924 56.6277 29.4918 56.503C29.1984 56.3783 28.9711 56.2097 28.8098 55.997C28.6558 55.777 28.5788 55.491 28.5788 55.139C28.5788 54.8017 28.6741 54.501 28.8648 54.237C29.0554 53.9657 29.3158 53.753 29.6458 53.599C29.9831 53.4377 30.3681 53.357 30.8008 53.357C31.3801 53.357 31.8531 53.4927 32.2198 53.764C32.5938 54.0353 32.8174 54.3837 32.8908 54.809L31.7798 55.106C31.7284 54.8933 31.6184 54.7283 31.4498 54.611C31.2811 54.4863 31.0538 54.424 30.7678 54.424C30.4818 54.424 30.2618 54.4827 30.1078 54.6C29.9611 54.7173 29.8878 54.864 29.8878 55.04C29.8878 55.216 29.9721 55.3553 30.1408 55.458C30.3168 55.5533 30.6138 55.645 31.0318 55.733C31.4204 55.8137 31.7578 55.9163 32.0438 56.041C32.3371 56.1583 32.5681 56.3233 32.7368 56.536C32.9054 56.7413 32.9898 57.02 32.9898 57.372C32.9898 57.7167 32.8908 58.021 32.6928 58.285C32.5021 58.5417 32.2344 58.7433 31.8898 58.89C31.5451 59.0293 31.1528 59.099 30.7128 59.099Z" fill="#8F78E6"/>
<path d="M18 39C26.2842 39 33 32.2842 33 24C33 15.7157 26.2842 9 18 9C9.71573 9 3 15.7157 3 24C3 26.3996 3.56343 28.6674 4.56519 30.6788C4.83141 31.2132 4.92002 31.8242 4.76568 32.4009L3.87227 35.7401C3.48443 37.1895 4.81052 38.5155 6.26003 38.1278L9.59909 37.2344C10.1759 37.08 10.7868 37.1687 11.3213 37.4348C13.3326 38.4366 15.6005 39 18 39Z" fill="#8F78E6"/>
<path d="M11.25 22.6639C11.25 24.7165 13.2283 26.8702 15.0429 28.4139C16.2786 29.4652 16.8966 29.9908 18 29.9908C19.1034 29.9908 19.7214 29.4652 20.9571 28.4139C22.7718 26.8702 24.75 24.7165 24.75 22.6639C24.75 18.6482 21.0373 17.1489 18 20.251C14.9626 17.1489 11.25 18.6482 11.25 22.6639Z" fill="#10000E"/>
<g filter="url(#filter0_d_666_2224)">
<circle cx="27.5455" cy="9.54545" r="7.54545" fill="#10000E"/>
<circle cx="27.5455" cy="9.54545" r="6.54545" fill="#FE5865"/>
<path d="M25.907 11.8181V10.779H27.2161V7.70266L26.3079 8.33266L25.7025 7.42448L27.7725 6.00902H28.5088V10.779H29.7279V11.8181H25.907Z" fill="white"/>
</g>
<defs>
<filter id="filter0_d_666_2224" x="18.3636" y="0.363636" width="18.3636" height="18.3635" filterUnits="userSpaceOnUse" color-interpolation-filters="sRGB">
<feFlood flood-opacity="0" result="BackgroundImageFix"/>
<feColorMatrix in="SourceAlpha" type="matrix" values="0 0 0 0 0 0 0 0 0 0 0 0 0 0 0 0 0 0 127 0" result="hardAlpha"/>
<feOffset/>
<feGaussianBlur stdDeviation="0.818182"/>
<feComposite in2="hardAlpha" operator="out"/>
<feColorMatrix type="matrix" values="0 0 0 0 0 0 0 0 0 0 0 0 0 0 0 0 0 0 0.12 0"/>
<feBlend mode="normal" in2="BackgroundImageFix" result="effect1_dropShadow_666_2224"/>
<feBlend mode="normal" in="SourceGraphic" in2="effect1_dropShadow_666_2224" result="shape"/>
</filter>
</defs>
</svg>
