<svg width="19" height="20" viewBox="0 0 19 20" fill="none" xmlns="http://www.w3.org/2000/svg">
<path d="M17.479 3.00049H13.729V2.25049C13.729 1.65375 13.492 1.08145 13.07 0.659498C12.648 0.237541 12.0757 0.000488281 11.479 0.000488281H6.979C6.38227 0.000488281 5.80997 0.237541 5.38801 0.659498C4.96606 1.08145 4.729 1.65375 4.729 2.25049V3.00049H0.979004C0.780092 3.00049 0.589326 3.07951 0.448674 3.22016C0.308022 3.36081 0.229004 3.55158 0.229004 3.75049C0.229004 3.9494 0.308022 4.14017 0.448674 4.28082C0.589326 4.42147 0.780092 4.50049 0.979004 4.50049H1.729V18.0005C1.729 18.3983 1.88704 18.7798 2.16834 19.0611C2.44965 19.3425 2.83118 19.5005 3.229 19.5005H15.229C15.6268 19.5005 16.0084 19.3425 16.2897 19.0611C16.571 18.7798 16.729 18.3983 16.729 18.0005V4.50049H17.479C17.6779 4.50049 17.8687 4.42147 18.0093 4.28082C18.15 4.14017 18.229 3.9494 18.229 3.75049C18.229 3.55158 18.15 3.36081 18.0093 3.22016C17.8687 3.07951 17.6779 3.00049 17.479 3.00049ZM7.729 14.2505C7.729 14.4494 7.64999 14.6402 7.50933 14.7808C7.36868 14.9215 7.17792 15.0005 6.979 15.0005C6.78009 15.0005 6.58933 14.9215 6.44867 14.7808C6.30802 14.6402 6.229 14.4494 6.229 14.2505V8.25049C6.229 8.05158 6.30802 7.86081 6.44867 7.72016C6.58933 7.57951 6.78009 7.50049 6.979 7.50049C7.17792 7.50049 7.36868 7.57951 7.50933 7.72016C7.64999 7.86081 7.729 8.05158 7.729 8.25049V14.2505ZM12.229 14.2505C12.229 14.4494 12.15 14.6402 12.0093 14.7808C11.8687 14.9215 11.6779 15.0005 11.479 15.0005C11.2801 15.0005 11.0893 14.9215 10.9487 14.7808C10.808 14.6402 10.729 14.4494 10.729 14.2505V8.25049C10.729 8.05158 10.808 7.86081 10.9487 7.72016C11.0893 7.57951 11.2801 7.50049 11.479 7.50049C11.6779 7.50049 11.8687 7.57951 12.0093 7.72016C12.15 7.86081 12.229 8.05158 12.229 8.25049V14.2505ZM12.229 3.00049H6.229V2.25049C6.229 2.05158 6.30802 1.86081 6.44867 1.72016C6.58933 1.57951 6.78009 1.50049 6.979 1.50049H11.479C11.6779 1.50049 11.8687 1.57951 12.0093 1.72016C12.15 1.86081 12.229 2.05158 12.229 2.25049V3.00049Z" fill="white"/>
</svg>
