<svg width="103" height="23" viewBox="0 0 103 23" fill="none" xmlns="http://www.w3.org/2000/svg">
<path d="M23.0522 1.38978C23.5163 1.45608 23.8312 1.59696 23.9969 1.81243C24.1792 2.0279 24.2704 2.30966 24.2704 2.65772C24.2704 3.80135 23.6571 4.33173 22.4306 4.24886L21.5605 4.17428C20.5826 4.0914 19.6047 4.02511 18.6268 3.97538C17.6655 3.92566 16.6545 3.9008 15.5937 3.9008H14.475C14.2761 6.3538 14.0689 8.59134 13.8534 10.6134L18.1296 10.5388C18.7429 10.5388 19.1489 10.6466 19.3478 10.862C19.5633 11.0775 19.671 11.3675 19.671 11.7322C19.671 12.2957 19.5053 12.7432 19.1738 13.0747C18.8423 13.3896 18.3699 13.5471 17.7567 13.5471H13.5054L13.3562 14.6161C13.0081 17.3509 12.2623 19.2984 11.1186 20.4586C9.99159 21.6188 8.4336 22.1989 6.44468 22.1989C5.31762 22.1989 4.28172 21.9586 3.33698 21.4779C2.39225 20.9807 1.69612 20.384 1.24862 19.6879C1.0663 19.4061 0.975138 19.0663 0.975138 18.6686C0.975138 18.2708 1.0663 17.9227 1.24862 17.6244C1.44751 17.326 1.68784 17.1769 1.9696 17.1769C2.16849 17.1769 2.3591 17.2432 2.54142 17.3758C2.74031 17.5083 2.98892 17.7653 3.28726 18.1465C4.08283 19.1906 5.06901 19.7127 6.24578 19.7127C7.19052 19.7127 7.97781 19.3315 8.60763 18.5691C9.25403 17.7901 9.66839 16.5719 9.85071 14.9145L9.99988 13.5471H8.80652C8.42531 13.5471 8.09383 13.4393 7.81206 13.2239C7.54687 13.0084 7.41428 12.7018 7.41428 12.304C7.41428 11.7902 7.54687 11.4007 7.81206 11.1355C8.07725 10.8537 8.46675 10.7129 8.98055 10.7129C9.44464 10.7129 9.90043 10.7046 10.3479 10.688C10.5468 8.86482 10.7623 6.65214 10.9943 4.04997C9.20431 4.21571 7.94466 4.50576 7.21538 4.92012C6.48611 5.33448 6.12148 5.94773 6.12148 6.75988C6.12148 7.3234 6.28722 7.86207 6.61871 8.37588C6.71815 8.52505 6.76788 8.67421 6.76788 8.82338C6.76788 9.12172 6.60213 9.38691 6.27065 9.61895C5.93916 9.83442 5.56624 9.94215 5.15188 9.94215C4.70437 9.94215 4.32316 9.80956 4.00825 9.54437C3.80935 9.37862 3.61875 9.03885 3.43643 8.52505C3.25411 8.01124 3.16295 7.43943 3.16295 6.8096C3.16295 4.75438 4.21543 3.26269 6.32037 2.33452C8.44189 1.40636 11.533 0.942276 15.5937 0.942276C18.4114 0.942276 20.8975 1.09145 23.0522 1.38978ZM22.4285 22.1243C21.6827 22.1243 21.0694 21.7845 20.5888 21.105C20.1247 20.4089 19.8926 19.547 19.8926 18.5194C19.8926 17.2763 19.9755 16.141 20.1412 15.1134C20.307 14.0692 20.5805 12.967 20.9617 11.8068C21.1274 11.3095 21.3595 10.9532 21.6578 10.7377C21.9561 10.5223 22.4285 10.4145 23.0749 10.4145C23.4395 10.4145 23.6882 10.4725 23.8208 10.5886C23.9699 10.7046 24.0445 10.8786 24.0445 11.1106C24.0445 11.2432 23.9533 11.6907 23.771 12.4532C23.6053 13.0664 23.4727 13.6217 23.3732 14.1189C23.0418 15.8592 22.876 17.0194 22.876 17.5995C22.876 17.9476 22.9175 18.1962 23.0003 18.3454C23.0832 18.4779 23.2158 18.5442 23.3981 18.5442C23.6467 18.5442 23.9533 18.2956 24.318 17.7984C24.6992 17.3012 25.097 16.547 25.5113 15.536C25.9423 14.525 26.3566 13.2819 26.7544 11.8068C26.887 11.3095 27.0859 10.9532 27.3511 10.7377C27.6329 10.5223 28.0472 10.4145 28.5942 10.4145C28.9754 10.4145 29.2406 10.4642 29.3897 10.5637C29.5389 10.6466 29.6135 10.8123 29.6135 11.0609C29.6135 11.4753 29.4063 12.6106 28.992 14.467C28.5279 16.5885 28.2958 17.8978 28.2958 18.3951C28.2958 18.71 28.3621 18.9586 28.4947 19.1409C28.6273 19.3067 28.8013 19.3895 29.0168 19.3895C29.3483 19.3895 29.7378 19.1906 30.1853 18.7929C30.6494 18.3785 31.2626 17.7155 32.0251 16.8039C32.224 16.5719 32.4477 16.4559 32.6963 16.4559C32.9118 16.4559 33.0775 16.5553 33.1936 16.7542C33.3261 16.9531 33.3924 17.2266 33.3924 17.5746C33.3924 18.2376 33.235 18.7514 32.9201 19.1161C32.2074 19.9945 31.4367 20.7155 30.608 21.279C29.7958 21.8425 28.8676 22.1243 27.8235 22.1243C27.0279 22.1243 26.4395 21.8177 26.0583 21.2044C25.6937 20.5912 25.5113 19.7293 25.5113 18.6188C25.2296 19.7459 24.8069 20.616 24.2434 21.2293C23.6799 21.826 23.0749 22.1243 22.4285 22.1243ZM33.1417 22.1243C32.5119 22.1243 32.0644 21.7928 31.7992 21.1298C31.5506 20.4669 31.4262 19.4061 31.4262 17.9476C31.4262 15.7929 31.7329 13.746 32.3461 11.8068C32.4953 11.3261 32.7356 10.9781 33.0671 10.7626C33.4152 10.5305 33.8958 10.4145 34.5091 10.4145C34.8406 10.4145 35.0726 10.456 35.2052 10.5388C35.3378 10.6217 35.4041 10.7792 35.4041 11.0112C35.4041 11.2764 35.2798 11.8731 35.0312 12.8012C34.8654 13.4642 34.7328 14.0443 34.6334 14.5415C34.5339 15.0388 34.4511 15.652 34.3848 16.3813C34.9317 14.9559 35.545 13.7957 36.2245 12.9007C36.9041 12.0057 37.567 11.3675 38.2134 10.9863C38.8764 10.6051 39.4814 10.4145 40.0283 10.4145C40.5587 10.4145 40.9565 10.5554 41.2217 10.8372C41.5035 11.1024 41.6443 11.5001 41.6443 12.0305C41.6443 12.4615 41.5532 13.2736 41.3709 14.467C41.2051 15.478 41.0725 16.4393 40.9731 17.3509C40.8736 18.2459 40.8239 19.2487 40.8239 20.3591C40.8239 20.989 40.6913 21.4448 40.4261 21.7265C40.1775 21.9917 39.7632 22.1243 39.183 22.1243C38.6361 22.1243 38.2383 21.9834 37.9897 21.7017C37.7411 21.4199 37.6168 20.9973 37.6168 20.4337C37.6168 19.7707 37.7328 18.6768 37.9648 17.152C38.1637 15.8261 38.2632 14.9808 38.2632 14.6161C38.2632 14.3509 38.172 14.2183 37.9897 14.2183C37.7742 14.2183 37.4676 14.5001 37.0698 15.0636C36.6886 15.6106 36.2908 16.3399 35.8765 17.2514C35.4787 18.163 35.1555 19.1243 34.9069 20.1354C34.7245 20.9144 34.5091 21.4448 34.2605 21.7265C34.0284 21.9917 33.6555 22.1243 33.1417 22.1243ZM69.2412 16.4559C69.4567 16.4559 69.6224 16.5553 69.7385 16.7542C69.8711 16.9531 69.9374 17.2266 69.9374 17.5746C69.9374 18.221 69.7799 18.7349 69.465 19.1161C68.5368 20.2265 67.6335 21.0055 66.7551 21.453C65.8932 21.9006 64.849 22.1243 63.6225 22.1243C62.7607 22.1243 61.9651 22.0166 61.2358 21.8011C60.5065 21.5856 59.6198 21.2624 58.5756 20.8315C57.6806 20.4503 56.885 20.1437 56.1889 19.9116C55.4265 20.7403 54.7387 21.3205 54.1254 21.6519C53.5122 21.9669 52.8658 22.1243 52.1862 22.1243C51.2746 22.1243 50.5454 21.9171 49.9984 21.5028C49.4514 21.0718 49.178 20.5166 49.178 19.837C49.178 19.3232 49.3437 18.8509 49.6752 18.4199C50.0233 17.989 50.5039 17.6492 51.1172 17.4006C51.7304 17.152 52.4431 17.0277 53.2553 17.0277C53.7193 17.0277 54.0674 17.036 54.2994 17.0526C57.548 13.0084 60.4817 8.74051 63.1004 4.24886C61.675 4.00025 60.2248 3.87594 58.7497 3.87594C56.8436 3.87594 55.4431 4.09969 54.5481 4.5472C53.6696 4.97813 53.2304 5.66597 53.2304 6.61071C53.2304 6.89247 53.2635 7.1328 53.3298 7.33169C53.3961 7.53058 53.4956 7.76263 53.6282 8.02781C53.7774 8.32615 53.8519 8.54162 53.8519 8.67422C53.8519 9.0057 53.6945 9.28747 53.3796 9.51951C53.0812 9.73497 52.7332 9.84271 52.3354 9.84271C51.921 9.84271 51.5813 9.7184 51.3161 9.46978C51.0011 9.18802 50.7442 8.80681 50.5454 8.32615C50.363 7.82892 50.2719 7.27368 50.2719 6.66043C50.2719 4.72123 51.0757 3.28755 52.6834 2.35938C54.2912 1.43122 56.4127 0.967139 59.048 0.967139C60.3574 0.967139 61.6916 1.04172 63.0507 1.19089C64.4264 1.34006 65.7109 1.58039 66.9042 1.91188C67.4015 2.04447 67.733 2.23508 67.8987 2.48369C68.0645 2.71573 68.1473 3.02236 68.1473 3.40357C68.1473 3.85108 68.0313 4.19914 67.7993 4.44775C67.5672 4.69637 67.244 4.82068 66.8297 4.82068H66.6556C64.8656 7.73776 63.0507 10.5388 61.211 13.2239C59.7358 15.362 58.6999 16.8122 58.1033 17.5746C59.0646 17.7901 59.9016 17.989 60.6143 18.1713C61.4927 18.4034 62.1971 18.5774 62.7275 18.6934C63.2745 18.7929 63.7468 18.8426 64.1446 18.8426C65.1059 18.8426 65.9264 18.6851 66.6059 18.3702C67.302 18.0387 67.9567 17.5166 68.57 16.8039C68.7689 16.5719 68.9926 16.4559 69.2412 16.4559ZM82.0766 14.3675C82.292 14.3675 82.4578 14.4752 82.5738 14.6907C82.6898 14.9062 82.7478 15.1797 82.7478 15.5111C82.7478 16.3067 82.5075 16.7791 82.0269 16.9282C81.0324 17.2763 79.9385 17.4752 78.7451 17.5249C78.4302 18.9172 77.8087 20.0359 76.8805 20.8812C75.9524 21.7099 74.8999 22.1243 73.7231 22.1243C72.7286 22.1243 71.8751 21.884 71.1624 21.4033C70.4662 20.9227 69.9359 20.2846 69.5712 19.489C69.2066 18.6934 69.0243 17.8315 69.0243 16.9034C69.0243 15.6437 69.2646 14.525 69.7453 13.5471C70.2259 12.5526 70.8889 11.7819 71.7342 11.235C72.5795 10.6714 73.5159 10.3897 74.5435 10.3897C75.8032 10.3897 76.8142 10.8289 77.5766 11.7073C78.3556 12.5692 78.8114 13.6382 78.944 14.9145C79.723 14.8647 80.6512 14.699 81.7285 14.4172C81.8611 14.3841 81.9771 14.3675 82.0766 14.3675ZM73.922 19.489C74.4524 19.489 74.9082 19.2735 75.2894 18.8426C75.6872 18.4117 75.9524 17.7901 76.0849 16.978C75.5711 16.6299 75.1734 16.1741 74.8916 15.6106C74.6264 15.0471 74.4938 14.4504 74.4938 13.8206C74.4938 13.5554 74.5187 13.2902 74.5684 13.025H74.4441C73.7811 13.025 73.2259 13.3482 72.7784 13.9946C72.3474 14.6244 72.132 15.5194 72.132 16.6796C72.132 17.5912 72.306 18.2873 72.6541 18.768C73.0187 19.2487 73.4413 19.489 73.922 19.489ZM82.3792 22.1243C81.7494 22.1243 81.3019 21.7928 81.0367 21.1298C80.7881 20.4669 80.6637 19.4061 80.6637 17.9476C80.6637 15.7929 80.9704 13.746 81.5836 11.8068C81.7328 11.3261 81.9731 10.9781 82.3046 10.7626C82.6527 10.5305 83.1333 10.4145 83.7466 10.4145C84.0781 10.4145 84.3101 10.456 84.4427 10.5388C84.5753 10.6217 84.6416 10.7792 84.6416 11.0112C84.6416 11.2764 84.5173 11.8731 84.2687 12.8012C84.1029 13.4642 83.9703 14.0443 83.8709 14.5415C83.7714 15.0388 83.6886 15.652 83.6223 16.3813C84.1692 14.9559 84.7825 13.7957 85.462 12.9007C86.1416 12.0057 86.8045 11.3675 87.4509 10.9863C88.1139 10.6051 88.7189 10.4145 89.2658 10.4145C90.3432 10.4145 90.8818 10.9532 90.8818 12.0305C90.8818 12.6769 90.6995 13.8454 90.3349 15.536C90.02 16.978 89.8625 17.931 89.8625 18.3951C89.8625 19.0581 90.1028 19.3895 90.5835 19.3895C90.915 19.3895 91.3045 19.1906 91.752 18.7929C92.2161 18.3785 92.8293 17.7155 93.5917 16.8039C93.7906 16.5719 94.0144 16.4559 94.263 16.4559C94.4785 16.4559 94.6442 16.5553 94.7602 16.7542C94.8928 16.9531 94.9591 17.2266 94.9591 17.5746C94.9591 18.2376 94.8017 18.7514 94.4868 19.1161C93.7741 19.9945 93.0034 20.7155 92.1746 21.279C91.3625 21.8425 90.4343 22.1243 89.3901 22.1243C88.5449 22.1243 87.9067 21.884 87.4758 21.4033C87.0449 20.9061 86.8294 20.1934 86.8294 19.2652C86.8294 18.8011 86.9454 17.9724 87.1775 16.7791C87.3929 15.7349 87.5007 15.0139 87.5007 14.6161C87.5007 14.3509 87.4095 14.2183 87.2272 14.2183C87.0117 14.2183 86.7051 14.5001 86.3073 15.0636C85.9261 15.6106 85.5283 16.3399 85.114 17.2514C84.7162 18.163 84.393 19.1243 84.1444 20.1354C83.962 20.9144 83.7466 21.4448 83.498 21.7265C83.2659 21.9917 82.893 22.1243 82.3792 22.1243ZM101.848 17.2017C102.064 17.2017 102.229 17.3012 102.345 17.5001C102.478 17.699 102.544 17.9724 102.544 18.3205C102.544 18.9172 102.403 19.431 102.122 19.8619C101.658 20.5746 101.044 21.1298 100.282 21.5276C99.536 21.9254 98.641 22.1243 97.5968 22.1243C96.0056 22.1243 94.7709 21.6519 93.8924 20.7072C93.014 19.7459 92.5748 18.4531 92.5748 16.8288C92.5748 15.6852 92.8151 14.6244 93.2957 13.6465C93.7764 12.6521 94.4394 11.8648 95.2847 11.2847C96.1465 10.7046 97.1161 10.4145 98.1935 10.4145C99.1548 10.4145 99.9255 10.7046 100.506 11.2847C101.086 11.8482 101.376 12.6189 101.376 13.5968C101.376 14.7404 100.961 15.7266 100.133 16.5553C99.3205 17.3675 97.9283 18.0139 95.9559 18.4945C96.3537 19.2569 97.025 19.6382 97.9697 19.6382C98.6493 19.6382 99.2045 19.4807 99.6354 19.1658C100.083 18.8509 100.597 18.3205 101.177 17.5746C101.376 17.326 101.599 17.2017 101.848 17.2017ZM97.7708 12.851C97.1576 12.851 96.6355 13.2073 96.2045 13.92C95.7902 14.6327 95.583 15.4946 95.583 16.5056V16.5553C96.5609 16.3233 97.3316 15.9752 97.8951 15.5111C98.4587 15.0471 98.7404 14.5084 98.7404 13.8951C98.7404 13.5802 98.6493 13.3316 98.4669 13.1493C98.3012 12.9504 98.0692 12.851 97.7708 12.851Z" fill="url(#paint0_linear_158_7587)"/>
<defs>
<linearGradient id="paint0_linear_158_7587" x1="1" y1="11" x2="102" y2="11" gradientUnits="userSpaceOnUse">
<stop stop-color="#8A2387"/>
<stop offset="0.5" stop-color="#E94057"/>
<stop offset="1" stop-color="#F27121"/>
</linearGradient>
</defs>
</svg>
