<svg width="430" height="78" viewBox="0 0 430 78" fill="none" xmlns="http://www.w3.org/2000/svg">
<g clip-path="url(#clip0_780_3665)" filter="url(#filter0_d_780_3665)">
<rect y="9" width="430" height="52" fill="#330F44"/>
<g style="mix-blend-mode:lighten" opacity="0.29">
<path fill-rule="evenodd" clip-rule="evenodd" d="M-45.3026 -92.6423L-76.5343 -116L-261 130.65L-229.768 154.008L-45.3026 -92.6423ZM484.698 -92.6423L453.466 -116L269 130.65L300.232 154.008L484.698 -92.6423ZM21.8145 -116L53.0462 -92.6423L-131.42 154.008L-162.651 130.65L21.8145 -116ZM583.046 -92.6423L551.815 -116L367.349 130.65L398.581 154.008L583.046 -92.6423ZM129.814 -116L161.046 -92.6423L-23.4195 154.008L-54.6512 130.65L129.814 -116ZM691.046 -92.6423L659.815 -116L475.349 130.65L506.58 154.008L691.046 -92.6423ZM237.814 -116L269.046 -92.6423L84.5804 154.008L53.3488 130.65L237.814 -116ZM799.046 -92.6423L767.814 -116L583.349 130.65L614.58 154.008L799.046 -92.6423ZM345.815 -116L377.046 -92.6423L192.58 154.008L161.349 130.65L345.815 -116ZM907.046 -92.6423L875.814 -116L691.349 130.65L722.58 154.008L907.046 -92.6423Z" fill="#B87CD4"/>
</g>
<g filter="url(#filter1_d_780_3665)">
<path d="M154.31 34.12H161.078V43H158.606L158.342 41.176C157.782 41.912 157.07 42.44 156.206 42.76C155.342 43.064 154.39 43.216 153.35 43.216C151.718 43.216 150.302 42.88 149.102 42.208C147.902 41.536 146.974 40.576 146.318 39.328C145.662 38.064 145.334 36.56 145.334 34.816C145.334 33.008 145.702 31.424 146.438 30.064C147.19 28.704 148.246 27.64 149.606 26.872C150.982 26.104 152.59 25.72 154.43 25.72C155.934 25.72 157.222 26 158.294 26.56C159.366 27.12 160.254 27.96 160.958 29.08L158.558 30.832C158.126 30.064 157.542 29.496 156.806 29.128C156.07 28.76 155.262 28.576 154.382 28.576C153.198 28.576 152.166 28.84 151.286 29.368C150.422 29.88 149.75 30.6 149.27 31.528C148.806 32.456 148.574 33.536 148.574 34.768C148.574 36.56 149.022 37.952 149.918 38.944C150.83 39.92 152.078 40.408 153.662 40.408C154.414 40.408 155.126 40.272 155.798 40C156.47 39.728 157.014 39.328 157.43 38.8C157.862 38.256 158.078 37.592 158.078 36.808V36.664H154.31V34.12ZM171.637 33.712C171.317 33.6 170.909 33.544 170.413 33.544C169.549 33.544 168.853 33.864 168.325 34.504C167.797 35.128 167.405 36.136 167.149 37.528C166.909 38.904 166.789 40.728 166.789 43H163.885V35.176L163.861 30.88H166.789L166.645 34.264C167.061 32.968 167.637 32.048 168.373 31.504C169.125 30.96 169.925 30.688 170.773 30.688C171.029 30.688 171.269 30.704 171.493 30.736C171.717 30.768 171.925 30.816 172.117 30.88L171.637 33.712ZM178.783 30.688C180.591 30.688 182.007 31.232 183.031 32.32C184.071 33.392 184.591 34.848 184.591 36.688C184.591 37.936 184.327 39.056 183.799 40.048C183.287 41.024 182.559 41.8 181.615 42.376C180.671 42.936 179.575 43.216 178.327 43.216C176.519 43.216 175.095 42.68 174.055 41.608C173.031 40.536 172.519 39.072 172.519 37.216C172.519 35.968 172.775 34.856 173.287 33.88C173.815 32.888 174.543 32.112 175.471 31.552C176.415 30.976 177.519 30.688 178.783 30.688ZM178.423 40.648C179.367 40.648 180.127 40.288 180.703 39.568C181.279 38.848 181.567 37.888 181.567 36.688C181.567 35.6 181.311 34.76 180.799 34.168C180.303 33.576 179.615 33.28 178.735 33.28C177.759 33.28 176.983 33.64 176.407 34.36C175.831 35.08 175.543 36.032 175.543 37.216C175.543 38.304 175.791 39.152 176.287 39.76C176.799 40.352 177.511 40.648 178.423 40.648ZM190.998 43.216C189.654 43.216 188.638 42.76 187.95 41.848C187.278 40.936 186.95 39.672 186.966 38.056L187.014 30.88H189.942L189.894 37.792C189.878 38.624 190.022 39.28 190.326 39.76C190.63 40.24 191.11 40.48 191.766 40.48C192.278 40.48 192.75 40.328 193.182 40.024C193.63 39.72 194.014 39.208 194.334 38.488C194.654 37.752 194.902 36.768 195.078 35.536C195.27 34.288 195.366 32.736 195.366 30.88H198.198V43H195.246L195.414 40.24C194.934 41.216 194.31 41.96 193.542 42.472C192.79 42.968 191.942 43.216 190.998 43.216ZM201.314 47.8V30.88H204.266L204.17 33.04C204.602 32.288 205.162 31.712 205.85 31.312C206.538 30.896 207.338 30.688 208.25 30.688C209.322 30.688 210.226 30.936 210.962 31.432C211.698 31.928 212.258 32.608 212.642 33.472C213.026 34.336 213.218 35.32 213.218 36.424C213.218 37.768 212.954 38.952 212.426 39.976C211.898 41 211.17 41.8 210.242 42.376C209.33 42.936 208.29 43.216 207.122 43.216C206.514 43.216 205.962 43.112 205.466 42.904C204.97 42.696 204.554 42.416 204.218 42.064L204.242 43V47.8H201.314ZM206.906 40.648C207.914 40.648 208.714 40.264 209.306 39.496C209.898 38.728 210.194 37.736 210.194 36.52C210.194 35.496 209.97 34.704 209.522 34.144C209.074 33.568 208.458 33.28 207.674 33.28C207.018 33.28 206.434 33.464 205.922 33.832C205.41 34.184 205.002 34.688 204.698 35.344C204.394 35.984 204.242 36.728 204.242 37.576C204.242 38.52 204.482 39.272 204.962 39.832C205.442 40.376 206.09 40.648 206.906 40.648ZM235.243 40.024L235.963 42.448C235.643 42.688 235.251 42.872 234.787 43C234.323 43.144 233.835 43.216 233.323 43.216C231.531 43.216 230.123 42.424 229.099 40.84L226.627 37.048C226.371 36.648 226.107 36.368 225.835 36.208C225.563 36.048 225.267 35.968 224.947 35.968H224.827V43H221.779V25.96H227.083C229.243 25.96 230.875 26.408 231.979 27.304C233.099 28.2 233.659 29.432 233.659 31C233.659 31.944 233.451 32.76 233.035 33.448C232.619 34.12 232.051 34.656 231.331 35.056C230.611 35.456 229.795 35.712 228.883 35.824C229.363 36.08 229.803 36.512 230.203 37.12L231.547 39.112C231.899 39.624 232.227 39.976 232.531 40.168C232.851 40.36 233.251 40.456 233.731 40.456C234.291 40.456 234.795 40.312 235.243 40.024ZM226.867 28.504H224.827V33.52H226.723C228.035 33.52 229.003 33.32 229.627 32.92C230.251 32.52 230.563 31.88 230.563 31C230.563 29.336 229.331 28.504 226.867 28.504ZM242.205 30.688C244.013 30.688 245.429 31.232 246.453 32.32C247.493 33.392 248.013 34.848 248.013 36.688C248.013 37.936 247.749 39.056 247.221 40.048C246.709 41.024 245.981 41.8 245.037 42.376C244.093 42.936 242.997 43.216 241.749 43.216C239.941 43.216 238.517 42.68 237.477 41.608C236.453 40.536 235.941 39.072 235.941 37.216C235.941 35.968 236.197 34.856 236.709 33.88C237.237 32.888 237.965 32.112 238.893 31.552C239.837 30.976 240.941 30.688 242.205 30.688ZM241.845 40.648C242.789 40.648 243.549 40.288 244.125 39.568C244.701 38.848 244.989 37.888 244.989 36.688C244.989 35.6 244.733 34.76 244.221 34.168C243.725 33.576 243.037 33.28 242.157 33.28C241.181 33.28 240.405 33.64 239.829 34.36C239.253 35.08 238.965 36.032 238.965 37.216C238.965 38.304 239.213 39.152 239.709 39.76C240.221 40.352 240.933 40.648 241.845 40.648ZM256.244 30.688C258.052 30.688 259.468 31.232 260.492 32.32C261.532 33.392 262.052 34.848 262.052 36.688C262.052 37.936 261.788 39.056 261.26 40.048C260.748 41.024 260.02 41.8 259.076 42.376C258.132 42.936 257.036 43.216 255.788 43.216C253.98 43.216 252.556 42.68 251.516 41.608C250.492 40.536 249.98 39.072 249.98 37.216C249.98 35.968 250.236 34.856 250.748 33.88C251.276 32.888 252.004 32.112 252.932 31.552C253.876 30.976 254.98 30.688 256.244 30.688ZM255.884 40.648C256.828 40.648 257.588 40.288 258.164 39.568C258.74 38.848 259.028 37.888 259.028 36.688C259.028 35.6 258.772 34.76 258.26 34.168C257.764 33.576 257.076 33.28 256.196 33.28C255.22 33.28 254.444 33.64 253.868 34.36C253.292 35.08 253.004 36.032 253.004 37.216C253.004 38.304 253.252 39.152 253.748 39.76C254.26 40.352 254.972 40.648 255.884 40.648ZM264.595 43V30.88H267.523L267.379 33.856C267.875 32.752 268.515 31.952 269.299 31.456C270.099 30.944 270.955 30.688 271.867 30.688C272.747 30.688 273.523 30.928 274.195 31.408C274.867 31.888 275.347 32.64 275.635 33.664C276.147 32.656 276.819 31.912 277.651 31.432C278.499 30.936 279.371 30.688 280.267 30.688C281.611 30.688 282.627 31.16 283.315 32.104C284.019 33.032 284.363 34.368 284.347 36.112L284.299 43H281.371L281.419 36.208C281.419 35.328 281.259 34.648 280.939 34.168C280.619 33.672 280.123 33.424 279.451 33.424C278.987 33.424 278.539 33.576 278.107 33.88C277.691 34.168 277.315 34.672 276.979 35.392C276.659 36.112 276.403 37.096 276.211 38.344C276.019 39.576 275.915 41.128 275.899 43H272.995V36.208C272.995 35.328 272.843 34.648 272.539 34.168C272.235 33.672 271.747 33.424 271.075 33.424C270.611 33.424 270.163 33.576 269.731 33.88C269.315 34.168 268.939 34.672 268.603 35.392C268.283 36.112 268.019 37.096 267.811 38.344C267.619 39.576 267.515 41.128 267.499 43H264.595Z" fill="white"/>
</g>
</g>
<defs>
<filter id="filter0_d_780_3665" x="-13" y="0" width="456" height="78" filterUnits="userSpaceOnUse" color-interpolation-filters="sRGB">
<feFlood flood-opacity="0" result="BackgroundImageFix"/>
<feColorMatrix in="SourceAlpha" type="matrix" values="0 0 0 0 0 0 0 0 0 0 0 0 0 0 0 0 0 0 127 0" result="hardAlpha"/>
<feOffset dy="4"/>
<feGaussianBlur stdDeviation="6.5"/>
<feComposite in2="hardAlpha" operator="out"/>
<feColorMatrix type="matrix" values="0 0 0 0 0 0 0 0 0 0 0 0 0 0 0 0 0 0 0.11 0"/>
<feBlend mode="normal" in2="BackgroundImageFix" result="effect1_dropShadow_780_3665"/>
<feBlend mode="normal" in="SourceGraphic" in2="effect1_dropShadow_780_3665" result="shape"/>
</filter>
<filter id="filter1_d_780_3665" x="141.334" y="22.72" width="147.037" height="30.08" filterUnits="userSpaceOnUse" color-interpolation-filters="sRGB">
<feFlood flood-opacity="0" result="BackgroundImageFix"/>
<feColorMatrix in="SourceAlpha" type="matrix" values="0 0 0 0 0 0 0 0 0 0 0 0 0 0 0 0 0 0 127 0" result="hardAlpha"/>
<feOffset dy="1"/>
<feGaussianBlur stdDeviation="2"/>
<feComposite in2="hardAlpha" operator="out"/>
<feColorMatrix type="matrix" values="0 0 0 0 0 0 0 0 0 0 0 0 0 0 0 0 0 0 0.25 0"/>
<feBlend mode="normal" in2="BackgroundImageFix" result="effect1_dropShadow_780_3665"/>
<feBlend mode="normal" in="SourceGraphic" in2="effect1_dropShadow_780_3665" result="shape"/>
</filter>
<clipPath id="clip0_780_3665">
<rect width="430" height="52" fill="white" transform="translate(0 9)"/>
</clipPath>
</defs>
</svg>
