<svg width="36" height="56" viewBox="0 0 36 56" fill="none" xmlns="http://www.w3.org/2000/svg">
<path d="M2.803 53V45.19H4.233V48.424H7.929V45.19H9.37V53H7.929V49.678H4.233V53H2.803ZM13.4861 47.357C14.3147 47.357 14.9637 47.6063 15.4331 48.105C15.9097 48.5963 16.1481 49.2637 16.1481 50.107C16.1481 50.679 16.0271 51.1923 15.7851 51.647C15.5504 52.0943 15.2167 52.45 14.7841 52.714C14.3514 52.9707 13.8491 53.099 13.2771 53.099C12.4484 53.099 11.7957 52.8533 11.3191 52.362C10.8497 51.8707 10.6151 51.1997 10.6151 50.349C10.6151 49.777 10.7324 49.2673 10.9671 48.82C11.2091 48.3653 11.5427 48.0097 11.9681 47.753C12.4007 47.489 12.9067 47.357 13.4861 47.357ZM13.3211 51.922C13.7537 51.922 14.1021 51.757 14.3661 51.427C14.6301 51.097 14.7621 50.657 14.7621 50.107C14.7621 49.6083 14.6447 49.2233 14.4101 48.952C14.1827 48.6807 13.8674 48.545 13.4641 48.545C13.0167 48.545 12.6611 48.71 12.3971 49.04C12.1331 49.37 12.0011 49.8063 12.0011 50.349C12.0011 50.8477 12.1147 51.2363 12.3421 51.515C12.5767 51.7863 12.9031 51.922 13.3211 51.922ZM17.3136 53V47.445H18.6556L18.5896 48.809C18.817 48.303 19.1103 47.9363 19.4696 47.709C19.8363 47.4743 20.2286 47.357 20.6466 47.357C21.05 47.357 21.4056 47.467 21.7136 47.687C22.0216 47.907 22.2416 48.2517 22.3736 48.721C22.6083 48.259 22.9163 47.918 23.2976 47.698C23.6863 47.4707 24.086 47.357 24.4966 47.357C25.1126 47.357 25.5783 47.5733 25.8936 48.006C26.2163 48.4313 26.374 49.0437 26.3666 49.843L26.3446 53H25.0026L25.0246 49.887C25.0246 49.4837 24.9513 49.172 24.8046 48.952C24.658 48.7247 24.4306 48.611 24.1226 48.611C23.91 48.611 23.7046 48.6807 23.5066 48.82C23.316 48.952 23.1436 49.183 22.9896 49.513C22.843 49.843 22.7256 50.294 22.6376 50.866C22.5496 51.4307 22.502 52.142 22.4946 53H21.1636V49.887C21.1636 49.4837 21.094 49.172 20.9546 48.952C20.8153 48.7247 20.5916 48.611 20.2836 48.611C20.071 48.611 19.8656 48.6807 19.6676 48.82C19.477 48.952 19.3046 49.183 19.1506 49.513C19.004 49.843 18.883 50.294 18.7876 50.866C18.6996 51.4307 18.652 52.142 18.6446 53H17.3136ZM30.3738 53.099C29.7725 53.099 29.2518 52.989 28.8118 52.769C28.3791 52.5417 28.0455 52.219 27.8108 51.801C27.5761 51.383 27.4588 50.8843 27.4588 50.305C27.4588 49.7257 27.5798 49.216 27.8218 48.776C28.0638 48.3287 28.3901 47.9803 28.8008 47.731C29.2188 47.4817 29.6918 47.357 30.2198 47.357C31.0778 47.357 31.7085 47.6503 32.1118 48.237C32.5225 48.8163 32.6655 49.6193 32.5408 50.646H28.8228C28.8521 51.0347 29.0098 51.3463 29.2958 51.581C29.5818 51.8157 29.9741 51.933 30.4728 51.933C30.7075 51.933 30.9421 51.8817 31.1768 51.779C31.4188 51.6763 31.6241 51.5187 31.7928 51.306L32.5738 52.098C32.3245 52.4133 32.0201 52.659 31.6608 52.835C31.3088 53.011 30.8798 53.099 30.3738 53.099ZM30.2418 48.369C29.8678 48.369 29.5598 48.4863 29.3178 48.721C29.0758 48.9557 28.9218 49.271 28.8558 49.667H31.3858C31.4005 49.2123 31.3015 48.8823 31.0888 48.677C30.8761 48.4717 30.5938 48.369 30.2418 48.369Z" fill="#8F78E6"/>
<path fill-rule="evenodd" clip-rule="evenodd" d="M19.6591 33H16.3408C11.1711 33 8.58613 33 6.82354 31.4823C5.06094 29.9646 4.69537 27.4241 3.96426 22.3428L3.5461 19.4369C2.97694 15.4812 2.69236 13.5034 3.50305 11.8124C4.31374 10.1214 6.03928 9.09351 9.49036 7.03772L11.5676 5.80031C14.7016 3.93343 16.2685 3 18 3C19.7314 3 21.2985 3.93343 24.4323 5.80031L26.5096 7.03772C29.9607 9.09351 31.6863 10.1214 32.4969 11.8124C33.3076 13.5034 33.0231 15.4812 32.4538 19.4369L32.0358 22.3428C31.3045 27.4241 30.939 29.9646 29.1765 31.4823C27.4138 33 24.8289 33 19.6591 33ZM12.5964 23.3298C12.9663 22.8306 13.6709 22.7259 14.1701 23.096C15.2626 23.9057 16.5813 24.3747 18.0001 24.3747C19.419 24.3747 20.7376 23.9057 21.8302 23.096C22.3294 22.7259 23.034 22.8306 23.4039 23.3298C23.7739 23.8289 23.6692 24.5336 23.17 24.9035C21.7114 25.9847 19.9276 26.6247 18.0001 26.6247C16.0726 26.6247 14.2888 25.9847 12.8302 24.9035C12.3311 24.5336 12.2264 23.8289 12.5964 23.3298Z" fill="#8F78E6"/>
</svg>
