<svg width="36" height="56" viewBox="0 0 36 56" fill="none" xmlns="http://www.w3.org/2000/svg">
<path d="M2.902 53V45.19H3.749V48.655H8.138V45.19H8.985V53H8.138V49.403H3.749V53H2.902ZM13.0968 47.434C13.8521 47.434 14.4461 47.6797 14.8788 48.171C15.3188 48.655 15.5388 49.315 15.5388 50.151C15.5388 50.7083 15.4288 51.2107 15.2088 51.658C14.9961 52.098 14.6954 52.4463 14.3068 52.703C13.9181 52.9597 13.4634 53.088 12.9428 53.088C12.1728 53.088 11.5678 52.846 11.1278 52.362C10.6878 51.8707 10.4678 51.2033 10.4678 50.36C10.4678 49.8027 10.5741 49.304 10.7868 48.864C11.0068 48.424 11.3148 48.0757 11.7108 47.819C12.1068 47.5623 12.5688 47.434 13.0968 47.434ZM12.9428 52.351C13.4708 52.351 13.8961 52.1493 14.2188 51.746C14.5414 51.3427 14.7028 50.811 14.7028 50.151C14.7028 49.513 14.5598 49.0217 14.2738 48.677C13.9951 48.3323 13.6064 48.16 13.1078 48.16C12.7411 48.16 12.4221 48.2553 12.1508 48.446C11.8868 48.6293 11.6778 48.886 11.5238 49.216C11.3771 49.546 11.3038 49.9273 11.3038 50.36C11.3038 51.0053 11.4468 51.5003 11.7328 51.845C12.0261 52.1823 12.4294 52.351 12.9428 52.351ZM16.951 53V47.533H17.765L17.699 49.414C17.897 48.7393 18.183 48.2407 18.557 47.918C18.9383 47.5953 19.36 47.434 19.822 47.434C20.2986 47.434 20.6836 47.577 20.977 47.863C21.2703 48.149 21.45 48.5817 21.516 49.161C21.7213 48.5817 22.0146 48.149 22.396 47.863C22.7846 47.577 23.2026 47.434 23.65 47.434C24.2073 47.434 24.6326 47.6283 24.926 48.017C25.2266 48.4057 25.3733 48.9667 25.366 49.7L25.344 53H24.541L24.563 49.799C24.5776 48.721 24.2073 48.182 23.452 48.182C23.2026 48.182 22.9643 48.259 22.737 48.413C22.5096 48.567 22.3043 48.8273 22.121 49.194C21.945 49.5533 21.8056 50.0447 21.703 50.668C21.6003 51.2913 21.549 52.0687 21.549 53H20.757V49.799C20.757 49.2563 20.669 48.853 20.493 48.589C20.3243 48.3177 20.0493 48.182 19.668 48.182C19.4113 48.182 19.1693 48.259 18.942 48.413C18.7146 48.567 18.5093 48.8273 18.326 49.194C18.15 49.5533 18.007 50.0447 17.897 50.668C17.7943 51.2913 17.743 52.0687 17.743 53H16.951ZM29.416 53.088C28.5726 53.088 27.909 52.846 27.425 52.362C26.9483 51.878 26.71 51.2033 26.71 50.338C26.71 49.7733 26.8236 49.271 27.051 48.831C27.2783 48.391 27.5863 48.05 27.975 47.808C28.371 47.5587 28.8183 47.434 29.317 47.434C30.065 47.434 30.6406 47.6943 31.044 48.215C31.4546 48.7357 31.6013 49.513 31.484 50.547H27.535C27.557 51.1337 27.733 51.581 28.063 51.889C28.4003 52.197 28.8696 52.351 29.471 52.351C29.7643 52.351 30.0466 52.2887 30.318 52.164C30.5893 52.032 30.8203 51.8303 31.011 51.559L31.517 52.021C31.0256 52.7323 30.3253 53.088 29.416 53.088ZM29.328 48.083C28.9906 48.083 28.6936 48.1637 28.437 48.325C28.1876 48.4863 27.986 48.7063 27.832 48.985C27.678 49.2563 27.5826 49.5607 27.546 49.898H30.78C30.8093 49.26 30.6846 48.798 30.406 48.512C30.1273 48.226 29.768 48.083 29.328 48.083Z" fill="#BABABA" fill-opacity="0.69"/>
<path fill-rule="evenodd" clip-rule="evenodd" d="M19.6592 33H16.3409C11.1711 33 8.58614 33 6.82355 31.4823C5.06094 29.9646 4.69538 27.4241 3.96426 22.3428L3.54611 19.4369C2.97695 15.4812 2.69237 13.5034 3.50306 11.8124C4.31375 10.1214 6.03929 9.09351 9.49037 7.03772L11.5676 5.80031C14.7016 3.93343 16.2686 3 18 3C19.7315 3 21.2985 3.93343 24.4323 5.80031L26.5097 7.03772C29.9607 9.09351 31.6863 10.1214 32.4969 11.8124C33.3077 13.5034 33.0231 15.4812 32.4539 19.4369L32.0358 22.3428C31.3046 27.4241 30.939 29.9646 29.1765 31.4823C27.4139 33 24.8289 33 19.6592 33ZM12.5964 23.3298C12.9663 22.8306 13.6709 22.7259 14.1701 23.096C15.2627 23.9057 16.5813 24.3747 18.0002 24.3747C19.419 24.3747 20.7377 23.9057 21.8303 23.096C22.3295 22.7259 23.034 22.8306 23.4039 23.3298C23.774 23.8289 23.6693 24.5336 23.1701 24.9035C21.7115 25.9847 19.9277 26.6247 18.0002 26.6247C16.0727 26.6247 14.2889 25.9847 12.8302 24.9035C12.3311 24.5336 12.2264 23.8289 12.5964 23.3298Z" fill="#50464F"/>
</svg>
