<svg width="18" height="20" viewBox="0 0 18 20" fill="none" xmlns="http://www.w3.org/2000/svg">
<path d="M12.7812 6.875V7.21875H13.125H15.875C16.1485 7.21875 16.4108 7.3274 16.6042 7.5208C16.7976 7.71419 16.9062 7.9765 16.9062 8.25V17.875C16.9062 18.1485 16.7976 18.4108 16.6042 18.6042C16.4108 18.7976 16.1485 18.9062 15.875 18.9062H2.125C1.8515 18.9062 1.58919 18.7976 1.3958 18.6042L1.15337 18.8466L1.3958 18.6042C1.2024 18.4108 1.09375 18.1485 1.09375 17.875V8.25C1.09375 7.9765 1.2024 7.71419 1.3958 7.5208C1.58919 7.3274 1.8515 7.21875 2.125 7.21875H4.875H5.21875V6.875V4.8125C5.21875 3.80965 5.61713 2.84787 6.32625 2.13875C7.03537 1.42963 7.99715 1.03125 9 1.03125C10.0028 1.03125 10.9646 1.42963 11.6737 2.13875C12.3829 2.84787 12.7812 3.80965 12.7812 4.8125V6.875ZM11.75 7.21875H12.0938V6.875V4.8125C12.0938 3.99199 11.7678 3.20508 11.1876 2.62489C10.6074 2.0447 9.82051 1.71875 9 1.71875C8.17949 1.71875 7.39258 2.0447 6.81239 2.62489C6.2322 3.20508 5.90625 3.99199 5.90625 4.8125V6.875V7.21875H6.25H11.75Z" fill="url(#paint0_linear_792_9193)" stroke="url(#paint1_linear_792_9193)" stroke-width="0.6875"/>
<defs>
<linearGradient id="paint0_linear_792_9193" x1="0.75" y1="9.96875" x2="17.25" y2="9.96875" gradientUnits="userSpaceOnUse">
<stop stop-color="#BF5AE0"/>
<stop offset="1" stop-color="#A811DA"/>
</linearGradient>
<linearGradient id="paint1_linear_792_9193" x1="0.75" y1="0.6875" x2="20.0884" y2="2.1774" gradientUnits="userSpaceOnUse">
<stop stop-color="white"/>
<stop offset="1" stop-color="#999999" stop-opacity="0.2"/>
</linearGradient>
</defs>
</svg>
