<svg width="24" height="25" viewBox="0 0 24 25" fill="none" xmlns="http://www.w3.org/2000/svg">
<g opacity="0.71" clip-path="url(#clip0_1449_3522)">
<path d="M11.25 20.8623C11.25 21.0612 11.171 21.252 11.0303 21.3926C10.8897 21.5333 10.6989 21.6123 10.5 21.6123H4.5C4.30109 21.6123 4.11032 21.5333 3.96967 21.3926C3.82902 21.252 3.75 21.0612 3.75 20.8623V4.3623C3.75 4.16339 3.82902 3.97263 3.96967 3.83197C4.11032 3.69132 4.30109 3.6123 4.5 3.6123H10.5C10.6989 3.6123 10.8897 3.69132 11.0303 3.83197C11.171 3.97263 11.25 4.16339 11.25 4.3623C11.25 4.56122 11.171 4.75198 11.0303 4.89263C10.8897 5.03329 10.6989 5.1123 10.5 5.1123H5.25V20.1123H10.5C10.6989 20.1123 10.8897 20.1913 11.0303 20.332C11.171 20.4726 11.25 20.6634 11.25 20.8623ZM21.5306 12.0817L17.7806 8.33168C17.6757 8.22667 17.542 8.15515 17.3965 8.12616C17.2509 8.09717 17.1 8.11202 16.9629 8.16884C16.8258 8.22565 16.7086 8.32187 16.6262 8.44532C16.5438 8.56876 16.4999 8.71388 16.5 8.8623V11.8623H10.5C10.3011 11.8623 10.1103 11.9413 9.96967 12.082C9.82902 12.2226 9.75 12.4134 9.75 12.6123C9.75 12.8112 9.82902 13.002 9.96967 13.1426C10.1103 13.2833 10.3011 13.3623 10.5 13.3623H16.5V16.3623C16.4999 16.5107 16.5438 16.6558 16.6262 16.7793C16.7086 16.9027 16.8258 16.999 16.9629 17.0558C17.1 17.1126 17.2509 17.1274 17.3965 17.0985C17.542 17.0695 17.6757 16.9979 17.7806 16.8929L21.5306 13.1429C21.6004 13.0733 21.6557 12.9906 21.6934 12.8995C21.7312 12.8085 21.7506 12.7109 21.7506 12.6123C21.7506 12.5137 21.7312 12.4161 21.6934 12.3251C21.6557 12.2341 21.6004 12.1513 21.5306 12.0817Z" fill="white"/>
</g>
<defs>
<clipPath id="clip0_1449_3522">
<rect width="24" height="24" fill="white" transform="translate(0 0.612305)"/>
</clipPath>
</defs>
</svg>
