<svg width="36" height="56" viewBox="0 0 36 56" fill="none" xmlns="http://www.w3.org/2000/svg">
<path d="M4.166 53V51.878H5.926V47.016L4.562 47.951L3.902 46.972L6.531 45.19H7.312V51.878H8.973V53H4.166ZM16.8245 47.445H18.1665L16.0875 53H14.1735L12.4135 47.445H13.8655L15.2075 51.911L16.8245 47.445ZM20.5399 53.099C19.7773 53.099 19.1943 52.956 18.7909 52.67C18.3876 52.3767 18.1529 51.9697 18.0869 51.449L19.2199 51.174C19.2639 51.4527 19.3923 51.669 19.6049 51.823C19.8176 51.9697 20.1219 52.043 20.5179 52.043C20.8406 52.043 21.0826 51.9917 21.2439 51.889C21.4126 51.7863 21.4969 51.647 21.4969 51.471C21.4969 51.295 21.4053 51.1593 21.2219 51.064C21.0459 50.9687 20.7709 50.8843 20.3969 50.811C19.9789 50.7303 19.6196 50.6277 19.3189 50.503C19.0256 50.3783 18.7983 50.2097 18.6369 49.997C18.4829 49.777 18.4059 49.491 18.4059 49.139C18.4059 48.8017 18.5013 48.501 18.6919 48.237C18.8826 47.9657 19.1429 47.753 19.4729 47.599C19.8103 47.4377 20.1953 47.357 20.6279 47.357C21.2073 47.357 21.6803 47.4927 22.0469 47.764C22.4209 48.0353 22.6446 48.3837 22.7179 48.809L21.6069 49.106C21.5556 48.8933 21.4456 48.7283 21.2769 48.611C21.1083 48.4863 20.8809 48.424 20.5949 48.424C20.3089 48.424 20.0889 48.4827 19.9349 48.6C19.7883 48.7173 19.7149 48.864 19.7149 49.04C19.7149 49.216 19.7993 49.3553 19.9679 49.458C20.1439 49.5533 20.4409 49.645 20.8589 49.733C21.2476 49.8137 21.5849 49.9163 21.8709 50.041C22.1643 50.1583 22.3953 50.3233 22.5639 50.536C22.7326 50.7413 22.8169 51.02 22.8169 51.372C22.8169 51.7167 22.7179 52.021 22.5199 52.285C22.3293 52.5417 22.0616 52.7433 21.7169 52.89C21.3723 53.0293 20.9799 53.099 20.5399 53.099ZM26.9072 53V51.878H28.6672V47.016L27.3032 47.951L26.6432 46.972L29.2722 45.19H30.0532V51.878H31.7142V53H26.9072Z" fill="#8F78E6"/>
<path d="M12.0564 10.9743L13.0299 12.7187C13.9084 14.2929 13.5557 16.358 12.172 17.7417C12.172 17.7417 10.4938 19.4202 13.5367 22.4633C16.5787 25.5053 18.2583 23.828 18.2583 23.828C19.642 22.4442 21.7071 22.0916 23.2813 22.9701L25.0257 23.9436C27.4029 25.2702 27.6835 28.6038 25.5942 30.6933C24.3387 31.9488 22.8006 32.9258 21.1003 32.9901C18.2382 33.0987 13.3774 32.3744 8.50153 27.4985C3.62567 22.6226 2.9013 17.7618 3.00981 14.8996C3.07426 13.1994 4.05118 11.6613 5.3067 10.4058C7.39612 8.31642 10.7297 8.59716 12.0564 10.9743Z" fill="#8F78E6"/>
<path fill-rule="evenodd" clip-rule="evenodd" d="M33 10.4999C33 14.6421 29.6421 17.9999 25.5 17.9999C24.3003 17.9999 23.1663 17.7182 22.1607 17.2174C21.8934 17.0842 21.588 17.0399 21.2996 17.117L19.6301 17.5637C18.9053 17.7577 18.2423 17.0947 18.4362 16.3699L18.8829 14.7004C18.96 14.412 18.9157 14.1065 18.7825 13.8393C18.2817 12.8337 18 11.6997 18 10.4999C18 6.35781 21.3579 2.99994 25.5 2.99994C29.6421 2.99994 33 6.35781 33 10.4999ZM25.9892 13.6306C26.1224 13.5601 29.25 11.8527 29.25 9.74329C29.2495 9.24796 29.0524 8.77307 28.7022 8.42282C28.3519 8.07256 27.877 7.87554 27.3817 7.87498C26.7594 7.87498 26.2146 8.14257 25.875 8.59489C25.5354 8.14257 24.9906 7.87498 24.3683 7.87498C23.873 7.87554 23.3981 8.07256 23.0478 8.42282C22.6976 8.77307 22.5006 9.24796 22.5 9.74329C22.5 11.8527 25.6276 13.5601 25.7608 13.6306C25.7959 13.6495 25.8351 13.6593 25.875 13.6593C25.9149 13.6593 25.9541 13.6495 25.9892 13.6306Z" fill="#8F78E6"/>
</svg>
