<svg width="36" height="56" viewBox="0 0 36 56" fill="none" xmlns="http://www.w3.org/2000/svg">
<path d="M4.386 53V52.318H6.135V46.29L4.54 47.368L4.144 46.785L6.498 45.19H6.96V52.318H8.654V53H4.386ZM16.6856 47.533H17.4886L15.3546 53H14.2326L12.4616 47.533H13.3196L14.8376 52.351L16.6856 47.533ZM19.9258 53.088C19.2438 53.088 18.7158 52.9487 18.3418 52.67C17.9678 52.384 17.7515 51.9807 17.6928 51.46L18.3968 51.295C18.4482 51.6837 18.5948 51.9697 18.8368 52.153C19.0862 52.3363 19.4492 52.428 19.9258 52.428C20.3292 52.428 20.6335 52.3473 20.8388 52.186C21.0515 52.0173 21.1578 51.801 21.1578 51.537C21.1578 51.2877 21.0515 51.1043 20.8388 50.987C20.6262 50.8623 20.2925 50.756 19.8378 50.668C19.4565 50.5947 19.1302 50.503 18.8588 50.393C18.5875 50.2757 18.3785 50.1143 18.2318 49.909C18.0852 49.7037 18.0118 49.4287 18.0118 49.084C18.0118 48.776 18.0962 48.4973 18.2648 48.248C18.4335 47.9987 18.6645 47.8043 18.9578 47.665C19.2585 47.5183 19.5958 47.445 19.9698 47.445C20.4832 47.445 20.9012 47.5697 21.2238 47.819C21.5538 48.061 21.7555 48.3983 21.8288 48.831L21.1468 49.007C21.0368 48.4057 20.6408 48.105 19.9588 48.105C19.6068 48.105 19.3245 48.193 19.1118 48.369C18.9065 48.5377 18.8038 48.7687 18.8038 49.062C18.8038 49.304 18.8955 49.4983 19.0788 49.645C19.2622 49.7843 19.5922 49.9053 20.0688 50.008C20.4575 50.0887 20.7912 50.184 21.0698 50.294C21.3485 50.3967 21.5612 50.5397 21.7078 50.723C21.8618 50.9063 21.9425 51.1593 21.9498 51.482C21.9498 51.79 21.8655 52.065 21.6968 52.307C21.5282 52.549 21.2898 52.7397 20.9818 52.879C20.6812 53.0183 20.3292 53.088 19.9258 53.088ZM26.2034 53V52.318H27.9524V46.29L26.3574 47.368L25.9614 46.785L28.3154 45.19H28.7774V52.318H30.4714V53H26.2034Z" fill="#BABABA" fill-opacity="0.69"/>
<path d="M12.0564 10.9743L13.0299 12.7187C13.9084 14.2929 13.5557 16.358 12.172 17.7417C12.172 17.7417 10.4938 19.4202 13.5367 22.4633C16.5787 25.5053 18.2583 23.828 18.2583 23.828C19.642 22.4442 21.7071 22.0916 23.2813 22.9701L25.0257 23.9436C27.4029 25.2702 27.6835 28.6038 25.5942 30.6933C24.3387 31.9488 22.8006 32.9258 21.1003 32.9901C18.2382 33.0987 13.3774 32.3744 8.50152 27.4985C3.62567 22.6226 2.90129 17.7618 3.0098 14.8996C3.07425 13.1994 4.05117 11.6613 5.30669 10.4058C7.39611 8.31642 10.7297 8.59716 12.0564 10.9743Z" fill="#50464F"/>
<path fill-rule="evenodd" clip-rule="evenodd" d="M33 10.4999C33 14.6421 29.6421 17.9999 25.5 17.9999C24.3003 17.9999 23.1663 17.7182 22.1607 17.2174C21.8934 17.0842 21.588 17.0399 21.2996 17.117L19.6301 17.5637C18.9053 17.7577 18.2423 17.0947 18.4362 16.3699L18.8829 14.7004C18.96 14.412 18.9157 14.1065 18.7825 13.8393C18.2817 12.8337 18 11.6997 18 10.4999C18 6.35781 21.3579 2.99994 25.5 2.99994C29.6421 2.99994 33 6.35781 33 10.4999ZM25.9892 13.6306C26.1224 13.5601 29.25 11.8527 29.25 9.74329C29.2495 9.24796 29.0524 8.77307 28.7022 8.42282C28.3519 8.07256 27.877 7.87554 27.3817 7.87498C26.7594 7.87498 26.2146 8.14257 25.875 8.59489C25.5354 8.14257 24.9906 7.87498 24.3683 7.87498C23.873 7.87554 23.3981 8.07256 23.0478 8.42282C22.6976 8.77307 22.5006 9.24796 22.5 9.74329C22.5 11.8527 25.6276 13.5601 25.7608 13.6306C25.7959 13.6495 25.8351 13.6593 25.875 13.6593C25.9149 13.6593 25.9541 13.6495 25.9892 13.6306Z" fill="#50464F"/>
</svg>
