<svg width="456" height="78" viewBox="0 0 456 78" fill="none" xmlns="http://www.w3.org/2000/svg">
<g clip-path="url(#clip0_158_8113)" filter="url(#filter0_d_158_8113)">
<rect x="13" y="9" width="430" height="52" fill="#211C24"/>
<g style="mix-blend-mode:lighten" opacity="0.05">
<path fill-rule="evenodd" clip-rule="evenodd" d="M-32.3026 -92.6423L-63.5343 -116L-248 130.65L-216.768 154.008L-32.3026 -92.6423ZM497.698 -92.6423L466.466 -116L282 130.65L313.232 154.008L497.698 -92.6423ZM34.8145 -116L66.0462 -92.6423L-118.42 154.008L-149.651 130.65L34.8145 -116ZM596.046 -92.6423L564.815 -116L380.349 130.65L411.581 154.008L596.046 -92.6423ZM142.814 -116L174.046 -92.6423L-10.4195 154.008L-41.6512 130.65L142.814 -116ZM704.046 -92.6423L672.815 -116L488.349 130.65L519.58 154.008L704.046 -92.6423ZM250.814 -116L282.046 -92.6423L97.5804 154.008L66.3488 130.65L250.814 -116ZM812.046 -92.6423L780.814 -116L596.349 130.65L627.58 154.008L812.046 -92.6423ZM358.815 -116L390.046 -92.6423L205.58 154.008L174.349 130.65L358.815 -116ZM920.046 -92.6423L888.814 -116L704.349 130.65L735.58 154.008L920.046 -92.6423Z" fill="#D9D9D9"/>
</g>
<g filter="url(#filter1_d_158_8113)">
<path d="M131.2 45H127.898V26.54H134.398C136.79 26.54 138.619 27.0253 139.884 27.996C141.149 28.9667 141.782 30.3707 141.782 32.208C141.782 34.0627 141.097 35.5187 139.728 36.576C138.359 37.616 136.365 38.136 133.748 38.136H131.2V45ZM134.268 29.296H131.2V35.354H133.93C135.49 35.354 136.625 35.1027 137.336 34.6C138.047 34.0973 138.402 33.3173 138.402 32.26C138.402 31.2027 138.064 30.4487 137.388 29.998C136.729 29.53 135.689 29.296 134.268 29.296ZM152.339 34.938C151.992 34.8167 151.55 34.756 151.013 34.756C150.077 34.756 149.323 35.1027 148.751 35.796C148.179 36.472 147.754 37.564 147.477 39.072C147.217 40.5627 147.087 42.5387 147.087 45H143.941V36.524L143.915 31.87H147.087L146.931 35.536C147.381 34.132 148.005 33.1353 148.803 32.546C149.617 31.9567 150.484 31.662 151.403 31.662C151.68 31.662 151.94 31.6793 152.183 31.714C152.425 31.7487 152.651 31.8007 152.859 31.87L152.339 34.938ZM157.7 31.87V45H154.528V31.87H157.7ZM156.114 29.79C155.49 29.79 154.996 29.5993 154.632 29.218C154.268 28.8367 154.086 28.3773 154.086 27.84C154.086 27.3027 154.268 26.8433 154.632 26.462C154.996 26.0807 155.49 25.89 156.114 25.89C156.738 25.89 157.232 26.0807 157.596 26.462C157.96 26.8433 158.142 27.3027 158.142 27.84C158.142 28.3773 157.96 28.8367 157.596 29.218C157.232 29.5993 156.738 29.79 156.114 29.79ZM170.153 31.87H173.325L168.411 45H163.887L159.727 31.87H163.159L166.331 42.426L170.153 31.87ZM186.605 31.922V45H183.381L183.485 42.712C183.017 43.5093 182.401 44.1333 181.639 44.584C180.893 45.0173 180.035 45.234 179.065 45.234C177.921 45.234 176.95 44.974 176.153 44.454C175.355 43.9167 174.749 43.18 174.333 42.244C173.917 41.308 173.709 40.2333 173.709 39.02C173.709 37.564 173.995 36.29 174.567 35.198C175.139 34.0887 175.919 33.222 176.907 32.598C177.912 31.974 179.039 31.662 180.287 31.662C181.119 31.662 181.855 31.844 182.497 32.208C183.138 32.5547 183.632 33.0227 183.979 33.612L184.291 31.922H186.605ZM180.521 34.47C179.446 34.47 178.588 34.8773 177.947 35.692C177.305 36.5067 176.985 37.5727 176.985 38.89C176.985 40.0167 177.227 40.892 177.713 41.516C178.198 42.14 178.865 42.452 179.715 42.452C180.408 42.452 181.032 42.2527 181.587 41.854C182.159 41.4553 182.609 40.9007 182.939 40.19C183.268 39.4793 183.433 38.6647 183.433 37.746C183.433 36.7233 183.173 35.926 182.653 35.354C182.133 34.7647 181.422 34.47 180.521 34.47ZM195.537 45.234C193.96 45.234 192.729 44.8007 191.845 43.934C190.979 43.0673 190.554 41.932 190.571 40.528L190.675 34.522H188.439V31.87H190.727L190.753 29.166H193.925L193.873 31.87H198.163V34.522H193.847L193.769 40.19C193.752 40.9007 193.925 41.464 194.289 41.88C194.671 42.2787 195.234 42.478 195.979 42.478C196.378 42.478 196.751 42.426 197.097 42.322C197.444 42.218 197.808 42.0273 198.189 41.75L199.125 44.194C198.727 44.5407 198.215 44.8007 197.591 44.974C196.967 45.1473 196.283 45.234 195.537 45.234ZM206.522 45.234C205.101 45.234 203.87 44.974 202.83 44.454C201.808 43.9167 201.019 43.154 200.464 42.166C199.91 41.178 199.632 39.9993 199.632 38.63C199.632 37.2607 199.918 36.056 200.49 35.016C201.062 33.9587 201.834 33.1353 202.804 32.546C203.792 31.9567 204.91 31.662 206.158 31.662C208.186 31.662 209.677 32.3553 210.63 33.742C211.601 35.1113 211.939 37.0093 211.644 39.436H202.856C202.926 40.3547 203.298 41.0913 203.974 41.646C204.65 42.2007 205.578 42.478 206.756 42.478C207.311 42.478 207.866 42.3567 208.42 42.114C208.992 41.8713 209.478 41.4987 209.876 40.996L211.722 42.868C211.133 43.6133 210.414 44.194 209.564 44.61C208.732 45.026 207.718 45.234 206.522 45.234ZM206.21 34.054C205.326 34.054 204.598 34.3313 204.026 34.886C203.454 35.4407 203.09 36.186 202.934 37.122H208.914C208.949 36.0473 208.715 35.2673 208.212 34.782C207.71 34.2967 207.042 34.054 206.21 34.054ZM221.762 45V42.348H225.922V30.856L222.698 33.066L221.138 30.752L227.352 26.54H229.198V42.348H233.124V45H221.762ZM245.36 31.87H248.532L243.618 45H239.094L234.934 31.87H238.366L241.538 42.426L245.36 31.87ZM254.142 45.234C252.339 45.234 250.961 44.896 250.008 44.22C249.054 43.5267 248.5 42.5647 248.344 41.334L251.022 40.684C251.126 41.3427 251.429 41.854 251.932 42.218C252.434 42.5647 253.154 42.738 254.09 42.738C254.852 42.738 255.424 42.6167 255.806 42.374C256.204 42.1313 256.404 41.802 256.404 41.386C256.404 40.97 256.187 40.6493 255.754 40.424C255.338 40.1987 254.688 39.9993 253.804 39.826C252.816 39.6353 251.966 39.3927 251.256 39.098C250.562 38.8033 250.025 38.4047 249.644 37.902C249.28 37.382 249.098 36.706 249.098 35.874C249.098 35.0767 249.323 34.366 249.774 33.742C250.224 33.1007 250.84 32.598 251.62 32.234C252.417 31.8527 253.327 31.662 254.35 31.662C255.719 31.662 256.837 31.9827 257.704 32.624C258.588 33.2653 259.116 34.0887 259.29 35.094L256.664 35.796C256.542 35.2933 256.282 34.9033 255.884 34.626C255.485 34.3313 254.948 34.184 254.272 34.184C253.596 34.184 253.076 34.3227 252.712 34.6C252.365 34.8773 252.192 35.224 252.192 35.64C252.192 36.056 252.391 36.3853 252.79 36.628C253.206 36.8533 253.908 37.07 254.896 37.278C255.814 37.4687 256.612 37.7113 257.288 38.006C257.981 38.2833 258.527 38.6733 258.926 39.176C259.324 39.6613 259.524 40.32 259.524 41.152C259.524 41.9667 259.29 42.686 258.822 43.31C258.371 43.9167 257.738 44.3933 256.924 44.74C256.109 45.0693 255.182 45.234 254.142 45.234ZM262.869 45V42.348H267.029V30.856L263.805 33.066L262.245 30.752L268.459 26.54H270.305V42.348H274.231V45H262.869ZM299.575 41.412C298.847 42.6427 297.842 43.5873 296.559 44.246C295.277 44.9047 293.838 45.234 292.243 45.234C290.354 45.234 288.733 44.87 287.381 44.142C286.029 43.414 284.989 42.374 284.261 41.022C283.551 39.6527 283.195 38.0233 283.195 36.134C283.195 34.1753 283.594 32.4593 284.391 30.986C285.189 29.5127 286.298 28.36 287.719 27.528C289.141 26.696 290.787 26.28 292.659 26.28C294.254 26.28 295.615 26.5833 296.741 27.19C297.885 27.7967 298.839 28.7153 299.601 29.946L297.001 31.818C296.533 30.9513 295.918 30.3187 295.155 29.92C294.393 29.5213 293.552 29.322 292.633 29.322C291.455 29.322 290.415 29.608 289.513 30.18C288.612 30.752 287.901 31.5493 287.381 32.572C286.879 33.5773 286.627 34.7473 286.627 36.082C286.627 38.006 287.121 39.5053 288.109 40.58C289.115 41.6547 290.51 42.192 292.295 42.192C293.283 42.192 294.193 41.9667 295.025 41.516C295.857 41.0653 296.533 40.3807 297.053 39.462L299.575 41.412ZM313.304 31.922V45H310.08L310.184 42.712C309.716 43.5093 309.1 44.1333 308.338 44.584C307.592 45.0173 306.734 45.234 305.764 45.234C304.62 45.234 303.649 44.974 302.852 44.454C302.054 43.9167 301.448 43.18 301.032 42.244C300.616 41.308 300.408 40.2333 300.408 39.02C300.408 37.564 300.694 36.29 301.266 35.198C301.838 34.0887 302.618 33.222 303.606 32.598C304.611 31.974 305.738 31.662 306.986 31.662C307.818 31.662 308.554 31.844 309.196 32.208C309.837 32.5547 310.331 33.0227 310.678 33.612L310.99 31.922H313.304ZM307.22 34.47C306.145 34.47 305.287 34.8773 304.646 35.692C304.004 36.5067 303.684 37.5727 303.684 38.89C303.684 40.0167 303.926 40.892 304.412 41.516C304.897 42.14 305.564 42.452 306.414 42.452C307.107 42.452 307.731 42.2527 308.286 41.854C308.858 41.4553 309.308 40.9007 309.638 40.19C309.967 39.4793 310.132 38.6647 310.132 37.746C310.132 36.7233 309.872 35.926 309.352 35.354C308.832 34.7647 308.121 34.47 307.22 34.47ZM320.468 45.234C319.22 45.234 318.276 44.896 317.634 44.22C316.993 43.544 316.672 42.582 316.672 41.334V25.76H319.844V41.074C319.844 42.01 320.278 42.478 321.144 42.478C321.578 42.478 321.959 42.374 322.288 42.166L323.068 44.48C322.791 44.688 322.418 44.8613 321.95 45C321.482 45.156 320.988 45.234 320.468 45.234ZM327.933 45.234C326.685 45.234 325.741 44.896 325.099 44.22C324.458 43.544 324.137 42.582 324.137 41.334V25.76H327.309V41.074C327.309 42.01 327.743 42.478 328.609 42.478C329.043 42.478 329.424 42.374 329.753 42.166L330.533 44.48C330.256 44.688 329.883 44.8613 329.415 45C328.947 45.156 328.453 45.234 327.933 45.234Z" fill="white"/>
</g>
</g>
<defs>
<filter id="filter0_d_158_8113" x="0" y="0" width="456" height="78" filterUnits="userSpaceOnUse" color-interpolation-filters="sRGB">
<feFlood flood-opacity="0" result="BackgroundImageFix"/>
<feColorMatrix in="SourceAlpha" type="matrix" values="0 0 0 0 0 0 0 0 0 0 0 0 0 0 0 0 0 0 127 0" result="hardAlpha"/>
<feOffset dy="4"/>
<feGaussianBlur stdDeviation="6.5"/>
<feComposite in2="hardAlpha" operator="out"/>
<feColorMatrix type="matrix" values="0 0 0 0 0 0 0 0 0 0 0 0 0 0 0 0 0 0 0.11 0"/>
<feBlend mode="normal" in2="BackgroundImageFix" result="effect1_dropShadow_158_8113"/>
<feBlend mode="normal" in="SourceGraphic" in2="effect1_dropShadow_158_8113" result="shape"/>
</filter>
<filter id="filter1_d_158_8113" x="123.898" y="22.76" width="210.635" height="27.4739" filterUnits="userSpaceOnUse" color-interpolation-filters="sRGB">
<feFlood flood-opacity="0" result="BackgroundImageFix"/>
<feColorMatrix in="SourceAlpha" type="matrix" values="0 0 0 0 0 0 0 0 0 0 0 0 0 0 0 0 0 0 127 0" result="hardAlpha"/>
<feOffset dy="1"/>
<feGaussianBlur stdDeviation="2"/>
<feComposite in2="hardAlpha" operator="out"/>
<feColorMatrix type="matrix" values="0 0 0 0 0 0 0 0 0 0 0 0 0 0 0 0 0 0 0.25 0"/>
<feBlend mode="normal" in2="BackgroundImageFix" result="effect1_dropShadow_158_8113"/>
<feBlend mode="normal" in="SourceGraphic" in2="effect1_dropShadow_158_8113" result="shape"/>
</filter>
<clipPath id="clip0_158_8113">
<rect width="430" height="52" fill="white" transform="translate(13 9)"/>
</clipPath>
</defs>
</svg>
