<svg width="430" height="78" viewBox="0 0 430 78" fill="none" xmlns="http://www.w3.org/2000/svg">
<g clip-path="url(#clip0_158_8051)" filter="url(#filter0_d_158_8051)">
<rect y="9" width="430" height="52" fill="#211C24"/>
<g style="mix-blend-mode:lighten" opacity="0.05">
<path fill-rule="evenodd" clip-rule="evenodd" d="M-45.3026 -92.6423L-76.5343 -116L-261 130.65L-229.768 154.008L-45.3026 -92.6423ZM484.698 -92.6423L453.466 -116L269 130.65L300.232 154.008L484.698 -92.6423ZM21.8145 -116L53.0462 -92.6423L-131.42 154.008L-162.651 130.65L21.8145 -116ZM583.046 -92.6423L551.815 -116L367.349 130.65L398.581 154.008L583.046 -92.6423ZM129.814 -116L161.046 -92.6423L-23.4195 154.008L-54.6512 130.65L129.814 -116ZM691.046 -92.6423L659.815 -116L475.349 130.65L506.58 154.008L691.046 -92.6423ZM237.814 -116L269.046 -92.6423L84.5804 154.008L53.3488 130.65L237.814 -116ZM799.046 -92.6423L767.814 -116L583.349 130.65L614.58 154.008L799.046 -92.6423ZM345.815 -116L377.046 -92.6423L192.58 154.008L161.349 130.65L345.815 -116ZM907.046 -92.6423L875.814 -116L691.349 130.65L722.58 154.008L907.046 -92.6423Z" fill="#D9D9D9"/>
</g>
<g filter="url(#filter1_d_158_8051)">
<path d="M124.8 43H121.752V25.96H127.752C129.96 25.96 131.648 26.408 132.816 27.304C133.984 28.2 134.568 29.496 134.568 31.192C134.568 32.904 133.936 34.248 132.672 35.224C131.408 36.184 129.568 36.664 127.152 36.664H124.8V43ZM127.632 28.504H124.8V34.096H127.32C128.76 34.096 129.808 33.864 130.464 33.4C131.12 32.936 131.448 32.216 131.448 31.24C131.448 30.264 131.136 29.568 130.512 29.152C129.904 28.72 128.944 28.504 127.632 28.504ZM144.313 33.712C143.993 33.6 143.585 33.544 143.089 33.544C142.225 33.544 141.529 33.864 141.001 34.504C140.473 35.128 140.081 36.136 139.825 37.528C139.585 38.904 139.465 40.728 139.465 43H136.561V35.176L136.537 30.88H139.465L139.321 34.264C139.737 32.968 140.313 32.048 141.049 31.504C141.801 30.96 142.601 30.688 143.449 30.688C143.705 30.688 143.945 30.704 144.169 30.736C144.393 30.768 144.601 30.816 144.793 30.88L144.313 33.712ZM149.261 30.88V43H146.333V30.88H149.261ZM147.797 28.96C147.221 28.96 146.765 28.784 146.429 28.432C146.093 28.08 145.925 27.656 145.925 27.16C145.925 26.664 146.093 26.24 146.429 25.888C146.765 25.536 147.221 25.36 147.797 25.36C148.373 25.36 148.829 25.536 149.165 25.888C149.501 26.24 149.669 26.664 149.669 27.16C149.669 27.656 149.501 28.08 149.165 28.432C148.829 28.784 148.373 28.96 147.797 28.96ZM160.756 30.88H163.684L159.148 43H154.972L151.132 30.88H154.3L157.228 40.624L160.756 30.88ZM175.943 30.928V43H172.967L173.063 40.888C172.631 41.624 172.063 42.2 171.359 42.616C170.671 43.016 169.879 43.216 168.983 43.216C167.927 43.216 167.031 42.976 166.295 42.496C165.559 42 164.999 41.32 164.615 40.456C164.231 39.592 164.039 38.6 164.039 37.48C164.039 36.136 164.303 34.96 164.831 33.952C165.359 32.928 166.079 32.128 166.991 31.552C167.919 30.976 168.959 30.688 170.111 30.688C170.879 30.688 171.559 30.856 172.151 31.192C172.743 31.512 173.199 31.944 173.519 32.488L173.807 30.928H175.943ZM170.327 33.28C169.335 33.28 168.543 33.656 167.951 34.408C167.359 35.16 167.063 36.144 167.063 37.36C167.063 38.4 167.287 39.208 167.735 39.784C168.183 40.36 168.799 40.648 169.583 40.648C170.223 40.648 170.799 40.464 171.311 40.096C171.839 39.728 172.255 39.216 172.559 38.56C172.863 37.904 173.015 37.152 173.015 36.304C173.015 35.36 172.775 34.624 172.295 34.096C171.815 33.552 171.159 33.28 170.327 33.28ZM184.188 43.216C182.732 43.216 181.596 42.816 180.78 42.016C179.98 41.216 179.588 40.168 179.604 38.872L179.7 33.328H177.636V30.88H179.748L179.772 28.384H182.7L182.652 30.88H186.612V33.328H182.628L182.556 38.56C182.54 39.216 182.7 39.736 183.036 40.12C183.388 40.488 183.908 40.672 184.596 40.672C184.964 40.672 185.308 40.624 185.628 40.528C185.948 40.432 186.284 40.256 186.636 40L187.5 42.256C187.132 42.576 186.66 42.816 186.084 42.976C185.508 43.136 184.876 43.216 184.188 43.216ZM194.328 43.216C193.016 43.216 191.88 42.976 190.92 42.496C189.976 42 189.248 41.296 188.736 40.384C188.224 39.472 187.968 38.384 187.968 37.12C187.968 35.856 188.232 34.744 188.76 33.784C189.288 32.808 190 32.048 190.896 31.504C191.808 30.96 192.84 30.688 193.992 30.688C195.864 30.688 197.24 31.328 198.12 32.608C199.016 33.872 199.328 35.624 199.056 37.864H190.944C191.008 38.712 191.352 39.392 191.976 39.904C192.6 40.416 193.456 40.672 194.544 40.672C195.056 40.672 195.568 40.56 196.08 40.336C196.608 40.112 197.056 39.768 197.424 39.304L199.128 41.032C198.584 41.72 197.92 42.256 197.136 42.64C196.368 43.024 195.432 43.216 194.328 43.216ZM194.04 32.896C193.224 32.896 192.552 33.152 192.024 33.664C191.496 34.176 191.16 34.864 191.016 35.728H196.536C196.568 34.736 196.352 34.016 195.888 33.568C195.424 33.12 194.808 32.896 194.04 32.896ZM208.396 43V40.552H212.236V29.944L209.26 31.984L207.82 29.848L213.556 25.96H215.26V40.552H218.884V43H208.396ZM230.178 30.88H233.106L228.57 43H224.394L220.554 30.88H223.722L226.65 40.624L230.178 30.88ZM238.285 43.216C236.621 43.216 235.349 42.904 234.469 42.28C233.589 41.64 233.077 40.752 232.933 39.616L235.405 39.016C235.501 39.624 235.781 40.096 236.245 40.432C236.709 40.752 237.373 40.912 238.237 40.912C238.941 40.912 239.469 40.8 239.821 40.576C240.189 40.352 240.373 40.048 240.373 39.664C240.373 39.28 240.173 38.984 239.773 38.776C239.389 38.568 238.789 38.384 237.973 38.224C237.061 38.048 236.277 37.824 235.621 37.552C234.981 37.28 234.485 36.912 234.133 36.448C233.797 35.968 233.629 35.344 233.629 34.576C233.629 33.84 233.837 33.184 234.253 32.608C234.669 32.016 235.237 31.552 235.957 31.216C236.693 30.864 237.533 30.688 238.477 30.688C239.741 30.688 240.773 30.984 241.573 31.576C242.389 32.168 242.877 32.928 243.037 33.856L240.613 34.504C240.501 34.04 240.261 33.68 239.893 33.424C239.525 33.152 239.029 33.016 238.405 33.016C237.781 33.016 237.301 33.144 236.965 33.4C236.645 33.656 236.485 33.976 236.485 34.36C236.485 34.744 236.669 35.048 237.037 35.272C237.421 35.48 238.069 35.68 238.981 35.872C239.829 36.048 240.565 36.272 241.189 36.544C241.829 36.8 242.333 37.16 242.701 37.624C243.069 38.072 243.253 38.68 243.253 39.448C243.253 40.2 243.037 40.864 242.605 41.44C242.189 42 241.605 42.44 240.853 42.76C240.101 43.064 239.245 43.216 238.285 43.216ZM246.341 43V40.552H250.181V29.944L247.205 31.984L245.765 29.848L251.501 25.96H253.205V40.552H256.829V43H246.341ZM280.223 39.688C279.551 40.824 278.623 41.696 277.439 42.304C276.255 42.912 274.927 43.216 273.455 43.216C271.711 43.216 270.215 42.88 268.967 42.208C267.719 41.536 266.759 40.576 266.087 39.328C265.431 38.064 265.103 36.56 265.103 34.816C265.103 33.008 265.471 31.424 266.207 30.064C266.943 28.704 267.967 27.64 269.279 26.872C270.591 26.104 272.111 25.72 273.839 25.72C275.311 25.72 276.567 26 277.607 26.56C278.663 27.12 279.543 27.968 280.247 29.104L277.847 30.832C277.415 30.032 276.847 29.448 276.143 29.08C275.439 28.712 274.663 28.528 273.815 28.528C272.727 28.528 271.767 28.792 270.935 29.32C270.103 29.848 269.447 30.584 268.967 31.528C268.503 32.456 268.271 33.536 268.271 34.768C268.271 36.544 268.727 37.928 269.639 38.92C270.567 39.912 271.855 40.408 273.503 40.408C274.415 40.408 275.255 40.2 276.023 39.784C276.791 39.368 277.415 38.736 277.895 37.888L280.223 39.688ZM292.896 30.928V43H289.92L290.016 40.888C289.584 41.624 289.016 42.2 288.312 42.616C287.624 43.016 286.832 43.216 285.936 43.216C284.88 43.216 283.984 42.976 283.248 42.496C282.512 42 281.952 41.32 281.568 40.456C281.184 39.592 280.992 38.6 280.992 37.48C280.992 36.136 281.256 34.96 281.784 33.952C282.312 32.928 283.032 32.128 283.944 31.552C284.872 30.976 285.912 30.688 287.064 30.688C287.832 30.688 288.512 30.856 289.104 31.192C289.696 31.512 290.152 31.944 290.472 32.488L290.76 30.928H292.896ZM287.28 33.28C286.288 33.28 285.496 33.656 284.904 34.408C284.312 35.16 284.016 36.144 284.016 37.36C284.016 38.4 284.24 39.208 284.688 39.784C285.136 40.36 285.752 40.648 286.536 40.648C287.176 40.648 287.752 40.464 288.264 40.096C288.792 39.728 289.208 39.216 289.512 38.56C289.816 37.904 289.968 37.152 289.968 36.304C289.968 35.36 289.728 34.624 289.248 34.096C288.768 33.552 288.112 33.28 287.28 33.28ZM299.509 43.216C298.357 43.216 297.485 42.904 296.893 42.28C296.301 41.656 296.005 40.768 296.005 39.616V25.24H298.933V39.376C298.933 40.24 299.333 40.672 300.133 40.672C300.533 40.672 300.885 40.576 301.189 40.384L301.909 42.52C301.653 42.712 301.309 42.872 300.877 43C300.445 43.144 299.989 43.216 299.509 43.216ZM306.4 43.216C305.248 43.216 304.376 42.904 303.784 42.28C303.192 41.656 302.896 40.768 302.896 39.616V25.24H305.824V39.376C305.824 40.24 306.224 40.672 307.024 40.672C307.424 40.672 307.776 40.576 308.08 40.384L308.8 42.52C308.544 42.712 308.2 42.872 307.768 43C307.336 43.144 306.88 43.216 306.4 43.216Z" fill="white"/>
</g>
</g>
<defs>
<filter id="filter0_d_158_8051" x="-13" y="0" width="456" height="78" filterUnits="userSpaceOnUse" color-interpolation-filters="sRGB">
<feFlood flood-opacity="0" result="BackgroundImageFix"/>
<feColorMatrix in="SourceAlpha" type="matrix" values="0 0 0 0 0 0 0 0 0 0 0 0 0 0 0 0 0 0 127 0" result="hardAlpha"/>
<feOffset dy="4"/>
<feGaussianBlur stdDeviation="6.5"/>
<feComposite in2="hardAlpha" operator="out"/>
<feColorMatrix type="matrix" values="0 0 0 0 0 0 0 0 0 0 0 0 0 0 0 0 0 0 0.11 0"/>
<feBlend mode="normal" in2="BackgroundImageFix" result="effect1_dropShadow_158_8051"/>
<feBlend mode="normal" in="SourceGraphic" in2="effect1_dropShadow_158_8051" result="shape"/>
</filter>
<filter id="filter1_d_158_8051" x="117.752" y="22.24" width="195.048" height="25.976" filterUnits="userSpaceOnUse" color-interpolation-filters="sRGB">
<feFlood flood-opacity="0" result="BackgroundImageFix"/>
<feColorMatrix in="SourceAlpha" type="matrix" values="0 0 0 0 0 0 0 0 0 0 0 0 0 0 0 0 0 0 127 0" result="hardAlpha"/>
<feOffset dy="1"/>
<feGaussianBlur stdDeviation="2"/>
<feComposite in2="hardAlpha" operator="out"/>
<feColorMatrix type="matrix" values="0 0 0 0 0 0 0 0 0 0 0 0 0 0 0 0 0 0 0.25 0"/>
<feBlend mode="normal" in2="BackgroundImageFix" result="effect1_dropShadow_158_8051"/>
<feBlend mode="normal" in="SourceGraphic" in2="effect1_dropShadow_158_8051" result="shape"/>
</filter>
<clipPath id="clip0_158_8051">
<rect width="430" height="52" fill="white" transform="translate(0 9)"/>
</clipPath>
</defs>
</svg>
