<svg width="36" height="56" viewBox="0 0 36 56" fill="none" xmlns="http://www.w3.org/2000/svg">
<path d="M7.534 52.153L7.721 52.813C7.49367 52.9817 7.193 53.066 6.819 53.066C6.50367 53.066 6.21767 52.9927 5.961 52.846C5.70433 52.6993 5.455 52.45 5.213 52.098L3.75 49.942C3.65467 49.8027 3.541 49.689 3.409 49.601C3.277 49.5057 3.14133 49.458 3.002 49.458H2.738V53H1.902V45.19H4.102C4.97467 45.19 5.642 45.3807 6.104 45.762C6.57333 46.136 6.808 46.6493 6.808 47.302C6.808 47.7713 6.69067 48.1637 6.456 48.479C6.22867 48.7943 5.92067 49.0327 5.532 49.194C5.14333 49.3553 4.71433 49.436 4.245 49.436H4.179C4.38433 49.5387 4.59333 49.7477 4.806 50.063L5.829 51.559C5.96833 51.7717 6.08933 51.933 6.192 52.043C6.302 52.153 6.412 52.23 6.522 52.274C6.63933 52.3107 6.78233 52.329 6.951 52.329C7.061 52.329 7.16367 52.3143 7.259 52.285C7.35433 52.2483 7.446 52.2043 7.534 52.153ZM4.036 45.894H2.738V48.776H3.937C4.58233 48.776 5.081 48.6623 5.433 48.435C5.785 48.2003 5.961 47.83 5.961 47.324C5.961 46.8767 5.807 46.5283 5.499 46.279C5.191 46.0223 4.70333 45.894 4.036 45.894ZM10.5606 47.434C11.316 47.434 11.91 47.6797 12.3426 48.171C12.7826 48.655 13.0026 49.315 13.0026 50.151C13.0026 50.7083 12.8926 51.2107 12.6726 51.658C12.46 52.098 12.1593 52.4463 11.7706 52.703C11.382 52.9597 10.9273 53.088 10.4066 53.088C9.63663 53.088 9.03163 52.846 8.59163 52.362C8.15163 51.8707 7.93163 51.2033 7.93163 50.36C7.93163 49.8027 8.03797 49.304 8.25063 48.864C8.47063 48.424 8.77863 48.0757 9.17463 47.819C9.57063 47.5623 10.0326 47.434 10.5606 47.434ZM10.4066 52.351C10.9346 52.351 11.36 52.1493 11.6826 51.746C12.0053 51.3427 12.1666 50.811 12.1666 50.151C12.1666 49.513 12.0236 49.0217 11.7376 48.677C11.459 48.3323 11.0703 48.16 10.5716 48.16C10.205 48.16 9.88597 48.2553 9.61463 48.446C9.35063 48.6293 9.14163 48.886 8.98763 49.216C8.84097 49.546 8.76763 49.9273 8.76763 50.36C8.76763 51.0053 8.91063 51.5003 9.19663 51.845C9.48997 52.1823 9.8933 52.351 10.4066 52.351ZM16.8018 47.434C17.5572 47.434 18.1512 47.6797 18.5838 48.171C19.0238 48.655 19.2438 49.315 19.2438 50.151C19.2438 50.7083 19.1338 51.2107 18.9138 51.658C18.7012 52.098 18.4005 52.4463 18.0118 52.703C17.6232 52.9597 17.1685 53.088 16.6478 53.088C15.8778 53.088 15.2728 52.846 14.8328 52.362C14.3928 51.8707 14.1728 51.2033 14.1728 50.36C14.1728 49.8027 14.2792 49.304 14.4918 48.864C14.7118 48.424 15.0198 48.0757 15.4158 47.819C15.8118 47.5623 16.2738 47.434 16.8018 47.434ZM16.6478 52.351C17.1758 52.351 17.6012 52.1493 17.9238 51.746C18.2465 51.3427 18.4078 50.811 18.4078 50.151C18.4078 49.513 18.2648 49.0217 17.9788 48.677C17.7002 48.3323 17.3115 48.16 16.8128 48.16C16.4462 48.16 16.1272 48.2553 15.8558 48.446C15.5918 48.6293 15.3828 48.886 15.2288 49.216C15.0822 49.546 15.0088 49.9273 15.0088 50.36C15.0088 51.0053 15.1518 51.5003 15.4378 51.845C15.7312 52.1823 16.1345 52.351 16.6478 52.351ZM20.6561 53V47.533H21.4701L21.4041 49.414C21.6021 48.7393 21.8881 48.2407 22.2621 47.918C22.6434 47.5953 23.0651 47.434 23.5271 47.434C24.0037 47.434 24.3887 47.577 24.6821 47.863C24.9754 48.149 25.1551 48.5817 25.2211 49.161C25.4264 48.5817 25.7197 48.149 26.1011 47.863C26.4897 47.577 26.9077 47.434 27.3551 47.434C27.9124 47.434 28.3377 47.6283 28.6311 48.017C28.9317 48.4057 29.0784 48.9667 29.0711 49.7L29.0491 53H28.2461L28.2681 49.799C28.2827 48.721 27.9124 48.182 27.1571 48.182C26.9077 48.182 26.6694 48.259 26.4421 48.413C26.2147 48.567 26.0094 48.8273 25.8261 49.194C25.6501 49.5533 25.5107 50.0447 25.4081 50.668C25.3054 51.2913 25.2541 52.0687 25.2541 53H24.4621V49.799C24.4621 49.2563 24.3741 48.853 24.1981 48.589C24.0294 48.3177 23.7544 48.182 23.3731 48.182C23.1164 48.182 22.8744 48.259 22.6471 48.413C22.4197 48.567 22.2144 48.8273 22.0311 49.194C21.8551 49.5533 21.7121 50.0447 21.6021 50.668C21.4994 51.2913 21.4481 52.0687 21.4481 53H20.6561ZM32.417 53.088C31.735 53.088 31.207 52.9487 30.833 52.67C30.459 52.384 30.2427 51.9807 30.184 51.46L30.888 51.295C30.9394 51.6837 31.086 51.9697 31.328 52.153C31.5774 52.3363 31.9404 52.428 32.417 52.428C32.8204 52.428 33.1247 52.3473 33.33 52.186C33.5427 52.0173 33.649 51.801 33.649 51.537C33.649 51.2877 33.5427 51.1043 33.33 50.987C33.1174 50.8623 32.7837 50.756 32.329 50.668C31.9477 50.5947 31.6214 50.503 31.35 50.393C31.0787 50.2757 30.8697 50.1143 30.723 49.909C30.5764 49.7037 30.503 49.4287 30.503 49.084C30.503 48.776 30.5874 48.4973 30.756 48.248C30.9247 47.9987 31.1557 47.8043 31.449 47.665C31.7497 47.5183 32.087 47.445 32.461 47.445C32.9744 47.445 33.3924 47.5697 33.715 47.819C34.045 48.061 34.2467 48.3983 34.32 48.831L33.638 49.007C33.528 48.4057 33.132 48.105 32.45 48.105C32.098 48.105 31.8157 48.193 31.603 48.369C31.3977 48.5377 31.295 48.7687 31.295 49.062C31.295 49.304 31.3867 49.4983 31.57 49.645C31.7534 49.7843 32.0834 49.9053 32.56 50.008C32.9487 50.0887 33.2824 50.184 33.561 50.294C33.8397 50.3967 34.0524 50.5397 34.199 50.723C34.353 50.9063 34.4337 51.1593 34.441 51.482C34.441 51.79 34.3567 52.065 34.188 52.307C34.0194 52.549 33.781 52.7397 33.473 52.879C33.1724 53.0183 32.8204 53.088 32.417 53.088Z" fill="#BABABA" fill-opacity="0.69"/>
<g clip-path="url(#clip0_666_1977)">
<path d="M19.5 19.5C22.8137 19.5 25.5 22.1863 25.5 25.5V27.75C25.5 28.9926 24.4926 30 23.25 30H5.25C4.00735 30 3 28.9926 3 27.75V25.5C3 22.1863 5.68629 19.5 9 19.5H19.5ZM28.5 19.5003C30.9853 19.5003 33 21.5151 33 24.0003V26.2503C33 27.493 31.9926 28.5003 30.75 28.5003H28.5V25.5C28.5 23.0467 27.3222 20.8687 25.5012 19.5003H28.5ZM14.25 4.5C17.978 4.5 21 7.52208 21 11.25C21 14.9779 17.978 18 14.25 18C10.5221 18 7.5 14.9779 7.5 11.25C7.5 7.52208 10.5221 4.5 14.25 4.5ZM27 9C29.4853 9 31.5 11.0147 31.5 13.5C31.5 15.9853 29.4853 18 27 18C24.5147 18 22.5 15.9853 22.5 13.5C22.5 11.0147 24.5147 9 27 9Z" fill="#50464F"/>
</g>
<defs>
<clipPath id="clip0_666_1977">
<rect width="36" height="36" fill="white"/>
</clipPath>
</defs>
</svg>
