<svg width="37" height="56" viewBox="0 0 37 56" fill="none" xmlns="http://www.w3.org/2000/svg">
<path d="M7.974 51.636L8.304 52.747C8.15733 52.857 7.97767 52.9413 7.765 53C7.55233 53.066 7.32867 53.099 7.094 53.099C6.27267 53.099 5.62733 52.736 5.158 52.01L4.025 50.272C3.90767 50.0887 3.78667 49.9603 3.662 49.887C3.53733 49.8137 3.40167 49.777 3.255 49.777H3.2V53H1.803V45.19H4.234C5.224 45.19 5.972 45.3953 6.478 45.806C6.99133 46.2167 7.248 46.7813 7.248 47.5C7.248 47.9327 7.15267 48.3067 6.962 48.622C6.77133 48.93 6.511 49.1757 6.181 49.359C5.851 49.5423 5.477 49.6597 5.059 49.711C5.279 49.8283 5.48067 50.0263 5.664 50.305L6.28 51.218C6.44133 51.4527 6.59167 51.614 6.731 51.702C6.87767 51.79 7.061 51.834 7.281 51.834C7.53767 51.834 7.76867 51.768 7.974 51.636ZM4.135 46.356H3.2V48.655H4.069C4.67033 48.655 5.114 48.5633 5.4 48.38C5.686 48.1967 5.829 47.9033 5.829 47.5C5.829 46.7373 5.26433 46.356 4.135 46.356ZM11.1648 47.357C11.9934 47.357 12.6424 47.6063 13.1118 48.105C13.5884 48.5963 13.8268 49.2637 13.8268 50.107C13.8268 50.679 13.7058 51.1923 13.4638 51.647C13.2291 52.0943 12.8954 52.45 12.4628 52.714C12.0301 52.9707 11.5278 53.099 10.9558 53.099C10.1271 53.099 9.47444 52.8533 8.99777 52.362C8.52844 51.8707 8.29377 51.1997 8.29377 50.349C8.29377 49.777 8.41111 49.2673 8.64577 48.82C8.88777 48.3653 9.22144 48.0097 9.64677 47.753C10.0794 47.489 10.5854 47.357 11.1648 47.357ZM10.9998 51.922C11.4324 51.922 11.7808 51.757 12.0448 51.427C12.3088 51.097 12.4408 50.657 12.4408 50.107C12.4408 49.6083 12.3234 49.2233 12.0888 48.952C11.8614 48.6807 11.5461 48.545 11.1428 48.545C10.6954 48.545 10.3398 48.71 10.0758 49.04C9.81177 49.37 9.67977 49.8063 9.67977 50.349C9.67977 50.8477 9.79344 51.2363 10.0208 51.515C10.2554 51.7863 10.5818 51.922 10.9998 51.922ZM17.5993 47.357C18.428 47.357 19.077 47.6063 19.5463 48.105C20.023 48.5963 20.2613 49.2637 20.2613 50.107C20.2613 50.679 20.1403 51.1923 19.8983 51.647C19.6637 52.0943 19.33 52.45 18.8973 52.714C18.4647 52.9707 17.9623 53.099 17.3903 53.099C16.5617 53.099 15.909 52.8533 15.4323 52.362C14.963 51.8707 14.7283 51.1997 14.7283 50.349C14.7283 49.777 14.8457 49.2673 15.0803 48.82C15.3223 48.3653 15.656 48.0097 16.0813 47.753C16.514 47.489 17.02 47.357 17.5993 47.357ZM17.4343 51.922C17.867 51.922 18.2153 51.757 18.4793 51.427C18.7433 51.097 18.8753 50.657 18.8753 50.107C18.8753 49.6083 18.758 49.2233 18.5233 48.952C18.296 48.6807 17.9807 48.545 17.5773 48.545C17.13 48.545 16.7743 48.71 16.5103 49.04C16.2463 49.37 16.1143 49.8063 16.1143 50.349C16.1143 50.8477 16.228 51.2363 16.4553 51.515C16.69 51.7863 17.0163 51.922 17.4343 51.922ZM21.4269 53V47.445H22.7689L22.7029 48.809C22.9302 48.303 23.2236 47.9363 23.5829 47.709C23.9496 47.4743 24.3419 47.357 24.7599 47.357C25.1632 47.357 25.5189 47.467 25.8269 47.687C26.1349 47.907 26.3549 48.2517 26.4869 48.721C26.7216 48.259 27.0296 47.918 27.4109 47.698C27.7996 47.4707 28.1992 47.357 28.6099 47.357C29.2259 47.357 29.6916 47.5733 30.0069 48.006C30.3296 48.4313 30.4872 49.0437 30.4799 49.843L30.4579 53H29.1159L29.1379 49.887C29.1379 49.4837 29.0646 49.172 28.9179 48.952C28.7712 48.7247 28.5439 48.611 28.2359 48.611C28.0232 48.611 27.8179 48.6807 27.6199 48.82C27.4292 48.952 27.2569 49.183 27.1029 49.513C26.9562 49.843 26.8389 50.294 26.7509 50.866C26.6629 51.4307 26.6152 52.142 26.6079 53H25.2769V49.887C25.2769 49.4837 25.2072 49.172 25.0679 48.952C24.9286 48.7247 24.7049 48.611 24.3969 48.611C24.1842 48.611 23.9789 48.6807 23.7809 48.82C23.5902 48.952 23.4179 49.183 23.2639 49.513C23.1172 49.843 22.9962 50.294 22.9009 50.866C22.8129 51.4307 22.7652 52.142 22.7579 53H21.4269ZM33.7831 53.099C33.0204 53.099 32.4374 52.956 32.0341 52.67C31.6308 52.3767 31.3961 51.9697 31.3301 51.449L32.4631 51.174C32.5071 51.4527 32.6354 51.669 32.8481 51.823C33.0608 51.9697 33.3651 52.043 33.7611 52.043C34.0838 52.043 34.3258 51.9917 34.4871 51.889C34.6558 51.7863 34.7401 51.647 34.7401 51.471C34.7401 51.295 34.6484 51.1593 34.4651 51.064C34.2891 50.9687 34.0141 50.8843 33.6401 50.811C33.2221 50.7303 32.8628 50.6277 32.5621 50.503C32.2688 50.3783 32.0414 50.2097 31.8801 49.997C31.7261 49.777 31.6491 49.491 31.6491 49.139C31.6491 48.8017 31.7444 48.501 31.9351 48.237C32.1258 47.9657 32.3861 47.753 32.7161 47.599C33.0534 47.4377 33.4384 47.357 33.8711 47.357C34.4504 47.357 34.9234 47.4927 35.2901 47.764C35.6641 48.0353 35.8878 48.3837 35.9611 48.809L34.8501 49.106C34.7988 48.8933 34.6888 48.7283 34.5201 48.611C34.3514 48.4863 34.1241 48.424 33.8381 48.424C33.5521 48.424 33.3321 48.4827 33.1781 48.6C33.0314 48.7173 32.9581 48.864 32.9581 49.04C32.9581 49.216 33.0424 49.3553 33.2111 49.458C33.3871 49.5533 33.6841 49.645 34.1021 49.733C34.4908 49.8137 34.8281 49.9163 35.1141 50.041C35.4074 50.1583 35.6384 50.3233 35.8071 50.536C35.9758 50.7413 36.0601 51.02 36.0601 51.372C36.0601 51.7167 35.9611 52.021 35.7631 52.285C35.5724 52.5417 35.3048 52.7433 34.9601 52.89C34.6154 53.0293 34.2231 53.099 33.7831 53.099Z" fill="#8F78E6"/>
<g clip-path="url(#clip0_666_2059)">
<path d="M19.5 19.5C22.8137 19.5 25.5 22.1863 25.5 25.5V27.75C25.5 28.9926 24.4926 30 23.25 30H5.25C4.00735 30 3 28.9926 3 27.75V25.5C3 22.1863 5.68629 19.5 9 19.5H19.5ZM28.5 19.5003C30.9853 19.5003 33 21.5151 33 24.0003V26.2503C33 27.493 31.9926 28.5003 30.75 28.5003H28.5V25.5C28.5 23.0467 27.3222 20.8687 25.5012 19.5003H28.5ZM14.25 4.5C17.978 4.5 21 7.52208 21 11.25C21 14.9779 17.978 18 14.25 18C10.5221 18 7.5 14.9779 7.5 11.25C7.5 7.52208 10.5221 4.5 14.25 4.5ZM27 9C29.4853 9 31.5 11.0147 31.5 13.5C31.5 15.9853 29.4853 18 27 18C24.5147 18 22.5 15.9853 22.5 13.5C22.5 11.0147 24.5147 9 27 9Z" fill="#8F78E6"/>
</g>
<defs>
<clipPath id="clip0_666_2059">
<rect width="36" height="36" fill="white"/>
</clipPath>
</defs>
</svg>
