<svg width="25" height="24" viewBox="0 0 25 24" fill="none" xmlns="http://www.w3.org/2000/svg">
<g clip-path="url(#clip0_1537_6796)">
<path d="M12.5 3.75C10.72 3.75 8.97991 4.27784 7.49987 5.26677C6.01983 6.25571 4.86628 7.66131 4.18509 9.30585C3.5039 10.9504 3.32567 12.76 3.67294 14.5058C4.0202 16.2516 4.87737 17.8553 6.13604 19.114C7.39472 20.3726 8.99836 21.2298 10.7442 21.5771C12.49 21.9243 14.2996 21.7461 15.9442 21.0649C17.5887 20.3837 18.9943 19.2302 19.9832 17.7501C20.9722 16.2701 21.5 14.53 21.5 12.75C21.4973 10.3639 20.5482 8.07629 18.861 6.38905C17.1737 4.70182 14.8861 3.75273 12.5 3.75ZM16.7806 9.53063L13.0306 13.2806C12.9609 13.3503 12.8782 13.4056 12.7872 13.4433C12.6961 13.481 12.5986 13.5004 12.5 13.5004C12.4015 13.5004 12.3039 13.481 12.2128 13.4433C12.1218 13.4056 12.0391 13.3503 11.9694 13.2806C11.8997 13.2109 11.8444 13.1282 11.8067 13.0372C11.769 12.9461 11.7496 12.8485 11.7496 12.75C11.7496 12.6515 11.769 12.5539 11.8067 12.4628C11.8444 12.3718 11.8997 12.2891 11.9694 12.2194L15.7194 8.46938C15.7891 8.39969 15.8718 8.34442 15.9628 8.30671C16.0539 8.26899 16.1515 8.24958 16.25 8.24958C16.3486 8.24958 16.4461 8.26899 16.5372 8.30671C16.6282 8.34442 16.7109 8.39969 16.7806 8.46938C16.8503 8.53906 16.9056 8.62178 16.9433 8.71283C16.981 8.80387 17.0004 8.90145 17.0004 9C17.0004 9.09855 16.981 9.19613 16.9433 9.28717C16.9056 9.37822 16.8503 9.46094 16.7806 9.53063ZM9.5 1.5C9.5 1.30109 9.57902 1.11032 9.71967 0.96967C9.86033 0.829018 10.0511 0.75 10.25 0.75H14.75C14.9489 0.75 15.1397 0.829018 15.2803 0.96967C15.421 1.11032 15.5 1.30109 15.5 1.5C15.5 1.69891 15.421 1.88968 15.2803 2.03033C15.1397 2.17098 14.9489 2.25 14.75 2.25H10.25C10.0511 2.25 9.86033 2.17098 9.71967 2.03033C9.57902 1.88968 9.5 1.69891 9.5 1.5Z" fill="white"/>
</g>
<defs>
<clipPath id="clip0_1537_6796">
<rect width="24" height="24" fill="white" transform="translate(0.5)"/>
</clipPath>
</defs>
</svg>
