<svg width="27" height="27" viewBox="0 0 27 27" fill="none" xmlns="http://www.w3.org/2000/svg">
<circle cx="13.5" cy="13.5" r="13.5" fill="url(#paint0_linear_792_9258)"/>
<g clip-path="url(#clip0_792_9258)">
<path d="M20 9.625V18.375C20 18.7065 19.8683 19.0245 19.6339 19.2589C19.3995 19.4933 19.0815 19.625 18.75 19.625H7.5C7.16848 19.625 6.85054 19.4933 6.61612 19.2589C6.3817 19.0245 6.25 18.7065 6.25 18.375V9.625C6.25 9.29348 6.3817 8.97554 6.61612 8.74112C6.85054 8.5067 7.16848 8.375 7.5 8.375H18.75C19.0815 8.375 19.3995 8.5067 19.6339 8.74112C19.8683 8.97554 20 9.29348 20 9.625ZM24.5313 9.64453C24.4431 9.62295 24.3513 9.62029 24.2621 9.63672C24.1728 9.65315 24.088 9.68829 24.0133 9.73984L21.3891 11.4891C21.3463 11.5176 21.3112 11.5563 21.2869 11.6017C21.2626 11.6471 21.25 11.6978 21.25 11.7492V16.2508C21.25 16.3022 21.2626 16.3529 21.2869 16.3983C21.3112 16.4437 21.3463 16.4824 21.3891 16.5109L24.0281 18.2703C24.1269 18.3362 24.2424 18.3726 24.3611 18.3752C24.4798 18.3779 24.5968 18.3466 24.6984 18.2852C24.7924 18.2254 24.8695 18.1425 24.9223 18.0444C24.9751 17.9464 25.0019 17.8364 25 17.725V10.25C25.0001 10.1114 24.9541 9.97668 24.8692 9.86708C24.7844 9.75747 24.6655 9.67918 24.5313 9.64453Z" fill="white"/>
</g>
<defs>
<linearGradient id="paint0_linear_792_9258" x1="0" y1="13.5" x2="27" y2="13.5" gradientUnits="userSpaceOnUse">
<stop stop-color="#BF5AE0"/>
<stop offset="1" stop-color="#A811DA"/>
</linearGradient>
<clipPath id="clip0_792_9258">
<rect width="20" height="20" fill="white" transform="translate(5 4)"/>
</clipPath>
</defs>
</svg>
