<svg width="22" height="22" viewBox="0 0 22 22" fill="none" xmlns="http://www.w3.org/2000/svg">
<g opacity="0.8">
<g clip-path="url(#clip0_792_9199)">
<path d="M16.5 6.1875V15.8125C16.5 16.1772 16.3551 16.5269 16.0973 16.7848C15.8394 17.0426 15.4897 17.1875 15.125 17.1875H2.75C2.38533 17.1875 2.03559 17.0426 1.77773 16.7848C1.51987 16.5269 1.375 16.1772 1.375 15.8125V6.1875C1.375 5.82283 1.51987 5.47309 1.77773 5.21523C2.03559 4.95737 2.38533 4.8125 2.75 4.8125H15.125C15.4897 4.8125 15.8394 4.95737 16.0973 5.21523C16.3551 5.47309 16.5 5.82283 16.5 6.1875ZM21.4844 6.20898C21.3874 6.18525 21.2865 6.18232 21.1883 6.20039C21.0901 6.21846 20.9968 6.25712 20.9146 6.31383L18.028 8.23797C17.9809 8.26939 17.9423 8.31195 17.9156 8.36187C17.8889 8.41179 17.875 8.46753 17.875 8.52414V13.4759C17.875 13.5325 17.8889 13.5882 17.9156 13.6381C17.9423 13.6881 17.9809 13.7306 18.028 13.762L20.9309 15.6973C21.0396 15.7698 21.1667 15.8099 21.2972 15.8127C21.4278 15.8156 21.5565 15.7813 21.6683 15.7137C21.7717 15.6479 21.8565 15.5568 21.9146 15.4489C21.9727 15.341 22.0021 15.22 22 15.0975V6.875C22.0001 6.72252 21.9495 6.57435 21.8561 6.45378C21.7628 6.33322 21.632 6.2471 21.4844 6.20898Z" fill="white"/>
</g>
</g>
<defs>
<clipPath id="clip0_792_9199">
<rect width="22" height="22" fill="white"/>
</clipPath>
</defs>
</svg>
