<svg width="119" height="119" viewBox="0 0 119 119" fill="none" xmlns="http://www.w3.org/2000/svg">
<g filter="url(#filter0_d_792_9151)">
<path d="M51.0206 14.6867C54.7892 8.15926 64.2108 8.15928 67.9794 14.6867L102.549 74.5633C106.318 81.0907 101.607 89.25 94.0698 89.25H24.9302C17.393 89.25 12.6823 81.0907 16.4509 74.5633L51.0206 14.6867Z" fill="url(#paint0_linear_792_9151)"/>
<path d="M51.0206 14.6867C54.7892 8.15926 64.2108 8.15928 67.9794 14.6867L102.549 74.5633C106.318 81.0907 101.607 89.25 94.0698 89.25H24.9302C17.393 89.25 12.6823 81.0907 16.4509 74.5633L51.0206 14.6867Z" fill="black" fill-opacity="0.3"/>
<g filter="url(#filter1_f_792_9151)">
<path d="M52.3245 17.6994C55.5134 12.1762 63.4854 12.1762 66.6743 17.6994L99.2872 74.1868C102.476 79.71 98.49 86.614 92.1124 86.614H26.8864C20.5088 86.614 16.5227 79.71 19.7116 74.1868L52.3245 17.6994Z" fill="url(#paint1_linear_792_9151)"/>
</g>
<path d="M57.0278 63.5594L55.9207 35.8279H63.249L61.4037 63.5594H57.0278ZM59.1894 75.3163C57.9593 75.3163 56.9575 74.9472 56.1843 74.2091C55.411 73.4359 55.0244 72.4693 55.0244 71.3095C55.0244 70.1144 55.411 69.1479 56.1843 68.4098C56.9575 67.6365 57.9593 67.2499 59.1894 67.2499C60.4547 67.2499 61.474 67.6365 62.2473 68.4098C63.0205 69.1479 63.4071 70.1144 63.4071 71.3095C63.4071 72.4693 63.0205 73.4359 62.2473 74.2091C61.474 74.9472 60.4547 75.3163 59.1894 75.3163Z" fill="white"/>
</g>
<defs>
<filter id="filter0_d_792_9151" x="12.1118" y="9.79102" width="94.7764" height="85.4843" filterUnits="userSpaceOnUse" color-interpolation-filters="sRGB">
<feFlood flood-opacity="0" result="BackgroundImageFix"/>
<feColorMatrix in="SourceAlpha" type="matrix" values="0 0 0 0 0 0 0 0 0 0 0 0 0 0 0 0 0 0 127 0" result="hardAlpha"/>
<feOffset dy="3.01266"/>
<feGaussianBlur stdDeviation="1.50633"/>
<feComposite in2="hardAlpha" operator="out"/>
<feColorMatrix type="matrix" values="0 0 0 0 0 0 0 0 0 0 0 0 0 0 0 0 0 0 0.25 0"/>
<feBlend mode="normal" in2="BackgroundImageFix" result="effect1_dropShadow_792_9151"/>
<feBlend mode="normal" in="SourceGraphic" in2="effect1_dropShadow_792_9151" result="shape"/>
</filter>
<filter id="filter1_f_792_9151" x="15.5766" y="10.5445" width="87.8456" height="79.0822" filterUnits="userSpaceOnUse" color-interpolation-filters="sRGB">
<feFlood flood-opacity="0" result="BackgroundImageFix"/>
<feBlend mode="normal" in="SourceGraphic" in2="BackgroundImageFix" result="shape"/>
<feGaussianBlur stdDeviation="1.50633" result="effect1_foregroundBlur_792_9151"/>
</filter>
<linearGradient id="paint0_linear_792_9151" x1="0" y1="59.5" x2="119" y2="59.5" gradientUnits="userSpaceOnUse">
<stop stop-color="#C84E89"/>
<stop offset="1" stop-color="#F15F79"/>
</linearGradient>
<linearGradient id="paint1_linear_792_9151" x1="5.27155" y1="59.5001" x2="113.727" y2="59.5001" gradientUnits="userSpaceOnUse">
<stop stop-color="#C84E89"/>
<stop offset="1" stop-color="#F15F79"/>
</linearGradient>
</defs>
</svg>
