<svg width="27" height="26" viewBox="0 0 27 26" fill="none" xmlns="http://www.w3.org/2000/svg">
<g clip-path="url(#clip0_1193_8534)">
<path d="M20 7.3125V18.6875C20 19.1185 19.8288 19.5318 19.5241 19.8365C19.2193 20.1413 18.806 20.3125 18.375 20.3125H3.75C3.31902 20.3125 2.9057 20.1413 2.60095 19.8365C2.2962 19.5318 2.125 19.1185 2.125 18.6875V7.3125C2.125 6.88152 2.2962 6.4682 2.60095 6.16345C2.9057 5.8587 3.31902 5.6875 3.75 5.6875H18.375C18.806 5.6875 19.2193 5.8587 19.5241 6.16345C19.8288 6.4682 20 6.88152 20 7.3125ZM25.8906 7.33789C25.776 7.30984 25.6567 7.30638 25.5407 7.32774C25.4246 7.34909 25.3144 7.39478 25.2173 7.4618L21.8058 9.73578C21.7501 9.77291 21.7045 9.82321 21.673 9.88221C21.6414 9.94121 21.625 10.0071 21.625 10.074V15.926C21.625 15.9929 21.6414 16.0588 21.673 16.1178C21.7045 16.1768 21.7501 16.2271 21.8058 16.2642L25.2366 18.5514C25.365 18.6371 25.5151 18.6844 25.6695 18.6878C25.8238 18.6912 25.9759 18.6506 26.108 18.5707C26.2302 18.493 26.3304 18.3853 26.399 18.2578C26.4677 18.1303 26.5024 17.9873 26.5 17.8425V8.125C26.5001 7.9448 26.4403 7.76969 26.33 7.6272C26.2197 7.48471 26.0651 7.38294 25.8906 7.33789Z" fill="white"/>
</g>
<defs>
<clipPath id="clip0_1193_8534">
<rect width="26" height="26" fill="white" transform="translate(0.5)"/>
</clipPath>
</defs>
</svg>
