<svg width="22" height="21" viewBox="0 0 22 21" fill="none" xmlns="http://www.w3.org/2000/svg">
<path d="M21.0503 15.7816C20.8692 17.1578 20.1934 18.421 19.149 19.3353C18.1046 20.2496 16.7631 20.7525 15.375 20.75C7.31095 20.75 0.750009 14.1891 0.750009 6.125C0.747521 4.73694 1.25039 3.39543 2.16471 2.35103C3.07902 1.30664 4.34224 0.630781 5.71845 0.449688C6.06645 0.407195 6.41887 0.478391 6.72309 0.652649C7.02731 0.826906 7.26701 1.09488 7.40642 1.41656L9.55142 6.20523V6.21742C9.65814 6.46366 9.70222 6.73251 9.67972 6.99994C9.65721 7.26737 9.56882 7.52506 9.42243 7.75C9.40415 7.77742 9.38485 7.80281 9.36454 7.8282L7.25001 10.3348C8.01071 11.8805 9.62759 13.4832 11.1937 14.2459L13.6657 12.1426C13.69 12.1222 13.7154 12.1032 13.7419 12.0857C13.9666 11.9358 14.2252 11.8443 14.4942 11.8195C14.7632 11.7946 15.0342 11.8373 15.2826 11.9435L15.2958 11.9496L20.0804 14.0936C20.4027 14.2325 20.6713 14.472 20.8461 14.7763C21.0209 15.0805 21.0926 15.4332 21.0503 15.7816Z" fill="white"/>
</svg>
